<?xml version="1.0" encoding="UTF-8"?>
<svg version="1.1" xmlns="http://www.w3.org/2000/svg" width="626" height="626">
<path d="M0 0 C206.58 0 413.16 0 626 0 C626 206.58 626 413.16 626 626 C419.42 626 212.84 626 0 626 C0 419.42 0 212.84 0 0 Z " fill="#FEFEFE" transform="translate(0,0)"/>
<path d="M0 0 C0.61987793 0.21914062 1.23975586 0.43828125 1.87841797 0.6640625 C6.3281027 2.25674986 10.76917211 3.88458606 15 6 C16.53668865 6.22467831 18.07968054 6.40796805 19.625 6.5625 C20.44226563 6.64628906 21.25953125 6.73007813 22.1015625 6.81640625 C22.72804687 6.87699219 23.35453125 6.93757813 24 7 C24 7.33 24 7.66 24 8 C23.40832031 8.07476562 22.81664062 8.14953125 22.20703125 8.2265625 C18.05605232 8.91726372 14.90076407 9.48428652 12.0625 12.75 C5.50602719 23.0814117 6.48078319 38.29177711 8.875 49.94921875 C11.36796165 60.07159606 15.48902501 69.63368073 20 79 C20.44859375 79.97324219 20.8971875 80.94648438 21.359375 81.94921875 C26.38208958 92.06851135 35.97393059 105.96562692 47 110 C51.15607494 110.70866406 54.85598933 110.8155123 59 110 C63.32762248 106.88411181 65.49994743 103.51129343 66.53125 98.33203125 C68.80143506 82.19479912 65.88347628 66.75787611 59.890625 51.79296875 C59 49 59 49 60 46 C60.67354499 47.43429001 61.33859701 48.87257057 62 50.3125 C62.37125 51.11300781 62.7425 51.91351563 63.125 52.73828125 C64 55 64 55 64 58 C64.89082275 57.91435791 65.78164551 57.82871582 66.69946289 57.74047852 C70.0821153 57.41633046 73.46494414 57.09414913 76.84790039 56.77319336 C78.29751695 56.63527923 79.74706436 56.49663584 81.1965332 56.35717773 C126.73348868 51.97892828 172.46853092 52.96313111 217.75 59.375 C218.79393921 59.52180206 219.83787842 59.66860413 220.91345215 59.81985474 C253.77198133 64.50117923 253.77198133 64.50117923 265.1875 70.6875 C265.84202148 71.02998779 266.49654297 71.37247559 267.17089844 71.7253418 C278.73586653 77.92727338 288.68345946 85.8212781 298 95 C298.96679688 95.94746094 298.96679688 95.94746094 299.953125 96.9140625 C332.48603768 131.42327361 331.53220075 184.29061116 331.3225708 228.43792725 C331.30912082 232.27704036 331.31440773 236.11603786 331.31944847 239.95516396 C331.35601289 277.06646783 331.35601289 277.06646783 329.24237061 294.02033997 C328.9954326 296.03730608 328.78862365 298.05513983 328.5925293 300.07763672 C324.70905157 338.87919826 306.18975139 377.39135888 279 405 C278.46729492 405.55896973 277.93458984 406.11793945 277.38574219 406.69384766 C275.96246733 408.16755351 274.48484577 409.58835085 273 411 C272.34 411 271.68 411 271 411 C271 411.66 271 412.32 271 413 C268.60325118 414.93949456 266.20885896 416.73386396 263.6875 418.5 C262.54583374 419.29978271 262.54583374 419.29978271 261.38110352 420.11572266 C220.04028831 448.43988717 171.62025379 453.29789039 123 446 C123 445.34 123 444.68 123 444 C123.75023437 443.67128906 124.50046875 443.34257813 125.2734375 443.00390625 C137.8127614 437.17643708 147.35177988 428.85357677 152.875 416 C155.76325718 407.23145876 153.37885813 400.27752394 150 392 C149.67 391.01 149.34 390.02 149 389 C148.34 389 147.68 389 147 389 C146.278125 388.2575 145.55625 387.515 144.8125 386.75 C132.19563338 374.41350819 110.71463516 373.98769555 94.08166504 372.73904419 C78.99262877 371.59656376 63.97952774 370.17664436 49 368 C47.9795459 367.85449707 46.9590918 367.70899414 45.90771484 367.55908203 C15.0683618 363.08033781 -13.66201966 351.62464601 -33.06152344 325.92797852 C-44.26630262 310.3388156 -51.24071413 293.38800913 -55.6875 274.75 C-55.98205078 273.54859375 -56.27660156 272.3471875 -56.58007812 271.109375 C-57.4014457 267.74269083 -58.21228973 264.37471921 -59 261 C-59.16570496 260.30481766 -59.33140991 259.60963531 -59.50213623 258.89338684 C-63.2153485 242.89162647 -63.27173377 226.65670433 -63.125 210.3125 C-63.11493282 208.32747856 -63.10581368 206.34245208 -63.09765625 204.35742188 C-63.07597862 199.5714862 -63.04166304 194.78580169 -63 190 C-63.9446814 189.75564209 -63.9446814 189.75564209 -64.90844727 189.50634766 C-70.86737662 187.8595285 -75.77736441 185.75715295 -80.9375 182.375 C-81.62207275 181.93478516 -82.30664551 181.49457031 -83.01196289 181.04101562 C-101.17856355 169.16146065 -114.11453464 153.75281891 -123 134 C-123.35707031 133.24976563 -123.71414062 132.49953125 -124.08203125 131.7265625 C-133.34711425 110.8367499 -132.8320428 83.33519258 -124.94824219 62.12036133 C-114.78117744 36.28831652 -96.4208844 15.07116819 -70.9375 3.625 C-48.75775464 -5.26200353 -22.86814329 -8.11702014 0 0 Z " fill="#542594" transform="translate(192,92)"/>
<path d="M0 0 C11.88 0 23.76 0 36 0 C36 0.33 36 0.66 36 1 C39.96 1.99 43.92 2.98 48 4 C48 4.66 48 5.32 48 6 C49.98 6 51.96 6 54 6 C54 7.32 54 8.64 54 10 C53.34 10 52.68 10 52 10 C51.11874556 31.26868348 51.11874556 31.26868348 55 52 C55.30599121 52.94093506 55.30599121 52.94093506 55.61816406 53.90087891 C61.17644324 70.67684962 69.92100743 89.69157366 85 100 C85.68578125 100.47050781 86.3715625 100.94101563 87.078125 101.42578125 C92.61767508 104.86378873 97.52024527 105.85119561 104 106 C104 107.32 104 108.64 104 110 C103.34 110 102.68 110 102 110 C102.04125 110.86625 102.0825 111.7325 102.125 112.625 C101.99542279 116.12358468 101.23980344 118.74551597 100 122 C99.34 122 98.68 122 98 122 C98 123.32 98 124.64 98 126 C97.34 126 96.68 126 96 126 C96 127.32 96 128.64 96 130 C95.34 130 94.68 130 94 130 C94 131.32 94 132.64 94 134 C93.34 134 92.68 134 92 134 C92 134.66 92 135.32 92 136 C91.34 136 90.68 136 90 136 C90 137.32 90 138.64 90 140 C89.34 140 88.68 140 88 140 C88 140.66 88 141.32 88 142 C87.34 142 86.68 142 86 142 C86 142.66 86 143.32 86 144 C85.34 144 84.68 144 84 144 C84 145.32 84 146.64 84 148 C83.34 148 82.68 148 82 148 C82 148.66 82 149.32 82 150 C81.34 150 80.68 150 80 150 C80 150.66 80 151.32 80 152 C77 154 77 154 74 154 C74 154.66 74 155.32 74 156 C73.34 156 72.68 156 72 156 C72 156.66 72 157.32 72 158 C71.34 158 70.68 158 70 158 C70 158.66 70 159.32 70 160 C68.68 160 67.36 160 66 160 C66 160.66 66 161.32 66 162 C65.34 162 64.68 162 64 162 C64 162.66 64 163.32 64 164 C62.68 164 61.36 164 60 164 C60 164.66 60 165.32 60 166 C58.68 166 57.36 166 56 166 C56 166.66 56 167.32 56 168 C54.68 168 53.36 168 52 168 C52 168.66 52 169.32 52 170 C47.82262526 171.59138085 44.46839215 172.21278058 40 172 C40 172.66 40 173.32 40 174 C36.04 174 32.08 174 28 174 C28 174.66 28 175.32 28 176 C20.08 176 12.16 176 4 176 C4 175.34 4 174.68 4 174 C2.845 174.04125 1.69 174.0825 0.5 174.125 C-3.94481301 174.14087433 -7.73724131 173.21793105 -12 172 C-12 171.34 -12 170.68 -12 170 C-13.32 170 -14.64 170 -16 170 C-16 169.34 -16 168.68 -16 168 C-17.32 168 -18.64 168 -20 168 C-20 167.34 -20 166.68 -20 166 C-21.32 166 -22.64 166 -24 166 C-24 165.34 -24 164.68 -24 164 C-25.32 164 -26.64 164 -28 164 C-28 163.34 -28 162.68 -28 162 C-28.66 162 -29.32 162 -30 162 C-30 161.34 -30 160.68 -30 160 C-31.32 160 -32.64 160 -34 160 C-34 159.34 -34 158.68 -34 158 C-34.66 158 -35.32 158 -36 158 C-36 157.34 -36 156.68 -36 156 C-37.32 156 -38.64 156 -40 156 C-40 155.34 -40 154.68 -40 154 C-40.66 154 -41.32 154 -42 154 C-42 153.34 -42 152.68 -42 152 C-42.66 152 -43.32 152 -44 152 C-44 151.34 -44 150.68 -44 150 C-44.66 150 -45.32 150 -46 150 C-46 149.34 -46 148.68 -46 148 C-46.66 148 -47.32 148 -48 148 C-48 147.34 -48 146.68 -48 146 C-48.66 146 -49.32 146 -50 146 C-50 144.68 -50 143.36 -50 142 C-50.66 142 -51.32 142 -52 142 C-52 141.34 -52 140.68 -52 140 C-52.66 140 -53.32 140 -54 140 C-54 139.34 -54 138.68 -54 138 C-54.66 138 -55.32 138 -56 138 C-56 136.68 -56 135.36 -56 134 C-56.66 134 -57.32 134 -58 134 C-58 132.68 -58 131.36 -58 130 C-58.66 130 -59.32 130 -60 130 C-60 128.68 -60 127.36 -60 126 C-60.66 126 -61.32 126 -62 126 C-62 124.68 -62 123.36 -62 122 C-62.66 122 -63.32 122 -64 122 C-64 120.68 -64 119.36 -64 118 C-64.66 118 -65.32 118 -66 118 C-66 116.02 -66 114.04 -66 112 C-66.66 112 -67.32 112 -68 112 C-68 109.36 -68 106.72 -68 104 C-68.66 104 -69.32 104 -70 104 C-70.82127467 71.65441294 -70.82127467 71.65441294 -66 58 C-65.62617187 56.8759375 -65.25234375 55.751875 -64.8671875 54.59375 C-64.58101563 53.7378125 -64.29484375 52.881875 -64 52 C-63.34 52 -62.68 52 -62 52 C-62 50.68 -62 49.36 -62 48 C-61.34 48 -60.68 48 -60 48 C-60 46.68 -60 45.36 -60 44 C-59.34 44 -58.68 44 -58 44 C-58 43.34 -58 42.68 -58 42 C-57.34 42 -56.68 42 -56 42 C-56 40.68 -56 39.36 -56 38 C-55.34 38 -54.68 38 -54 38 C-54 37.34 -54 36.68 -54 36 C-53.34 36 -52.68 36 -52 36 C-52 34.68 -52 33.36 -52 32 C-51.34 32 -50.68 32 -50 32 C-50 31.34 -50 30.68 -50 30 C-49.34 30 -48.68 30 -48 30 C-48 29.34 -48 28.68 -48 28 C-47.34 28 -46.68 28 -46 28 C-46 27.34 -46 26.68 -46 26 C-45.34 26 -44.68 26 -44 26 C-44 25.34 -44 24.68 -44 24 C-43.34 24 -42.68 24 -42 24 C-42 23.34 -42 22.68 -42 22 C-41.34 22 -40.68 22 -40 22 C-40 21.34 -40 20.68 -40 20 C-39.34 20 -38.68 20 -38 20 C-38 19.34 -38 18.68 -38 18 C-36.68 18 -35.36 18 -34 18 C-34 17.34 -34 16.68 -34 16 C-33.34 16 -32.68 16 -32 16 C-32 15.34 -32 14.68 -32 14 C-31.34 14 -30.68 14 -30 14 C-30 13.34 -30 12.68 -30 12 C-28.68 12 -27.36 12 -26 12 C-26 11.34 -26 10.68 -26 10 C-24.68 10 -23.36 10 -22 10 C-22 9.34 -22 8.68 -22 8 C-20.68 8 -19.36 8 -18 8 C-18 7.34 -18 6.68 -18 6 C-16.02 6 -14.04 6 -12 6 C-12 5.34 -12 4.68 -12 4 C-7.82262526 2.40861915 -4.46839215 1.78721942 0 2 C0 1.34 0 0.68 0 0 Z " fill="#FDD70C" transform="translate(144,100)"/>
<path d="M0 0 C0.66 0 1.32 0 2 0 C1.98428955 0.65371582 1.9685791 1.30743164 1.95239258 1.98095703 C1.33251291 31.72995001 8.22399712 57.05476589 28 80 C30.24954199 82.19991974 32.50243782 84.07479582 35 86 C35.66 86.66 36.32 87.32 37 88 C20.83 88 4.66 88 -12 88 C-12 88.66 -12 89.32 -12 90 C-13.32 90 -14.64 90 -16 90 C-16 90.66 -16 91.32 -16 92 C-15.34 92 -14.68 92 -14 92 C-14 93.98 -14 95.96 -14 98 C-13.34 98 -12.68 98 -12 98 C-12 99.98 -12 101.96 -12 104 C-11.34 104 -10.68 104 -10 104 C-10 105.32 -10 106.64 -10 108 C-9.34 108 -8.68 108 -8 108 C-8 109.98 -8 111.96 -8 114 C-7.34 114 -6.68 114 -6 114 C-6 115.98 -6 117.96 -6 120 C-5.34 120 -4.68 120 -4 120 C-4 123.96 -4 127.92 -4 132 C-4.66 132 -5.32 132 -6 132 C-6 132.66 -6 133.32 -6 134 C-6.66 134 -7.32 134 -8 134 C-8 134.66 -8 135.32 -8 136 C-8.66 136 -9.32 136 -10 136 C-10 136.66 -10 137.32 -10 138 C-13.3 138 -16.6 138 -20 138 C-20 137.34 -20 136.68 -20 136 C-21.32 136 -22.64 136 -24 136 C-24 135.34 -24 134.68 -24 134 C-24.66 134 -25.32 134 -26 134 C-26 132.68 -26 131.36 -26 130 C-26.66 130 -27.32 130 -28 130 C-28 128.68 -28 127.36 -28 126 C-28.66 126 -29.32 126 -30 126 C-30 124.02 -30 122.04 -30 120 C-30.66 120 -31.32 120 -32 120 C-32 118.68 -32 117.36 -32 116 C-32.66 116 -33.32 116 -34 116 C-34 114.68 -34 113.36 -34 112 C-34.66 112 -35.32 112 -36 112 C-36 110.02 -36 108.04 -36 106 C-36.66 106 -37.32 106 -38 106 C-38 104.68 -38 103.36 -38 102 C-38.66 102 -39.32 102 -40 102 C-40 100.68 -40 99.36 -40 98 C-41.98 98 -43.96 98 -46 98 C-46 98.66 -46 99.32 -46 100 C-51.28 100 -56.56 100 -62 100 C-62 99.34 -62 98.68 -62 98 C-63.32 98 -64.64 98 -66 98 C-66 97.34 -66 96.68 -66 96 C-66.66 96 -67.32 96 -68 96 C-68 95.34 -68 94.68 -68 94 C-68.66 94 -69.32 94 -70 94 C-70 93.34 -70 92.68 -70 92 C-70.66 92 -71.32 92 -72 92 C-72 90.68 -72 89.36 -72 88 C-72.66 88 -73.32 88 -74 88 C-74 86.68 -74 85.36 -74 84 C-74.66 84 -75.32 84 -76 84 C-76 82.02 -76 80.04 -76 78 C-76.66 78 -77.32 78 -78 78 C-78 72.72 -78 67.44 -78 62 C-77.34 62 -76.68 62 -76 62 C-76 60.68 -76 59.36 -76 58 C-75.34 58 -74.68 58 -74 58 C-74 57.34 -74 56.68 -74 56 C-73.34 56 -72.68 56 -72 56 C-72 55.34 -72 54.68 -72 54 C-71.34 54 -70.68 54 -70 54 C-70 53.34 -70 52.68 -70 52 C-68.68 52 -67.36 52 -66 52 C-66 51.34 -66 50.68 -66 50 C-64.68 50 -63.36 50 -62 50 C-62 49.34 -62 48.68 -62 48 C-60.68 48 -59.36 48 -58 48 C-58 47.34 -58 46.68 -58 46 C-56.68 46 -55.36 46 -54 46 C-54 45.34 -54 44.68 -54 44 C-52.68 44 -51.36 44 -50 44 C-50 43.34 -50 42.68 -50 42 C-48.68 42 -47.36 42 -46 42 C-46 41.34 -46 40.68 -46 40 C-44.68 40 -43.36 40 -42 40 C-42 39.34 -42 38.68 -42 38 C-40.68 38 -39.36 38 -38 38 C-38 37.34 -38 36.68 -38 36 C-37.34 36 -36.68 36 -36 36 C-36 35.34 -36 34.68 -36 34 C-34.68 34 -33.36 34 -32 34 C-32 33.34 -32 32.68 -32 32 C-31.34 32 -30.68 32 -30 32 C-30 31.34 -30 30.68 -30 30 C-29.34 30 -28.68 30 -28 30 C-28 29.34 -28 28.68 -28 28 C-26.68 28 -25.36 28 -24 28 C-24 27.34 -24 26.68 -24 26 C-23.34 26 -22.68 26 -22 26 C-22 25.34 -22 24.68 -22 24 C-21.34 24 -20.68 24 -20 24 C-20 23.34 -20 22.68 -20 22 C-19.34 22 -18.68 22 -18 22 C-18 21.34 -18 20.68 -18 20 C-17.34 20 -16.68 20 -16 20 C-16 19.34 -16 18.68 -16 18 C-15.34 18 -14.68 18 -14 18 C-14 17.34 -14 16.68 -14 16 C-13.34 16 -12.68 16 -12 16 C-12 15.34 -12 14.68 -12 14 C-11.34 14 -10.68 14 -10 14 C-10 13.34 -10 12.68 -10 12 C-9.34 12 -8.68 12 -8 12 C-8 11.34 -8 10.68 -8 10 C-7.34 10 -6.68 10 -6 10 C-6 9.34 -6 8.68 -6 8 C-5.34 8 -4.68 8 -4 8 C-4 6.68 -4 5.36 -4 4 C-3.34 4 -2.68 4 -2 4 C-2 3.34 -2 2.68 -2 2 C-1.34 2 -0.68 2 0 2 C0 1.34 0 0.68 0 0 Z " fill="#FEFEFE" transform="translate(194,114)"/>
<path d="M0 0 C0.61987793 0.21914062 1.23975586 0.43828125 1.87841797 0.6640625 C6.3281027 2.25674986 10.76917211 3.88458606 15 6 C16.53668865 6.22467831 18.07968054 6.40796805 19.625 6.5625 C20.44226563 6.64628906 21.25953125 6.73007813 22.1015625 6.81640625 C22.72804687 6.87699219 23.35453125 6.93757813 24 7 C24 7.33 24 7.66 24 8 C23.40832031 8.07476562 22.81664062 8.14953125 22.20703125 8.2265625 C18.05605232 8.91726372 14.90076407 9.48428652 12.0625 12.75 C5.50602719 23.0814117 6.48078319 38.29177711 8.875 49.94921875 C11.36796165 60.07159606 15.48902501 69.63368073 20 79 C20.44859375 79.97324219 20.8971875 80.94648438 21.359375 81.94921875 C26.38208958 92.06851135 35.97393059 105.96562692 47 110 C51.15607494 110.70866406 54.85598933 110.8155123 59 110 C62.92329591 107.17522695 65.47566467 103.90572255 66.34521484 99.08691406 C66.6433029 96.81051323 66.89393258 94.53415825 67.125 92.25 C67.25455078 91.06083984 67.25455078 91.06083984 67.38671875 89.84765625 C67.59800054 87.89916859 67.79992467 85.94967024 68 84 C70.82323349 88.23485023 70.34212449 91.82905122 70.3125 96.8125 C70.30831055 97.75794678 70.30412109 98.70339355 70.29980469 99.67749023 C70.17502553 107.47817856 69.17248975 114.48129634 67 122 C66.74476563 122.96421875 66.48953125 123.9284375 66.2265625 124.921875 C58.71052909 150.43501593 40.99063931 171.142798 18 184 C-6.53169589 196.92964677 -33.41681117 199.69676049 -60 192 C-60.66 191.67 -61.32 191.34 -62 191 C-62 192.65 -62 194.3 -62 196 C-62.33 196 -62.66 196 -63 196 C-63 194.02 -63 192.04 -63 190 C-63.53625 189.89945313 -64.0725 189.79890625 -64.625 189.6953125 C-86.2911724 184.49258031 -104.73168148 165.72809844 -115.99609375 147.390625 C-118.57919835 143.01999187 -120.91779564 138.62884091 -123 134 C-123.35707031 133.24976563 -123.71414062 132.49953125 -124.08203125 131.7265625 C-133.34711425 110.8367499 -132.8320428 83.33519258 -124.94824219 62.12036133 C-114.78117744 36.28831652 -96.4208844 15.07116819 -70.9375 3.625 C-48.75775464 -5.26200353 -22.86814329 -8.11702014 0 0 Z M-48 8 C-48 8.66 -48 9.32 -48 10 C-48.86625 9.95875 -49.7325 9.9175 -50.625 9.875 C-54.12358468 10.00457721 -56.74551597 10.76019656 -60 12 C-60 12.66 -60 13.32 -60 14 C-61.98 14 -63.96 14 -66 14 C-66 14.66 -66 15.32 -66 16 C-67.32 16 -68.64 16 -70 16 C-70 16.66 -70 17.32 -70 18 C-71.32 18 -72.64 18 -74 18 C-74 18.66 -74 19.32 -74 20 C-75.32 20 -76.64 20 -78 20 C-78 20.66 -78 21.32 -78 22 C-78.66 22 -79.32 22 -80 22 C-80 22.66 -80 23.32 -80 24 C-80.66 24 -81.32 24 -82 24 C-82 24.66 -82 25.32 -82 26 C-83.32 26 -84.64 26 -86 26 C-86 26.66 -86 27.32 -86 28 C-86.66 28 -87.32 28 -88 28 C-88 28.66 -88 29.32 -88 30 C-88.66 30 -89.32 30 -90 30 C-90 30.66 -90 31.32 -90 32 C-90.66 32 -91.32 32 -92 32 C-92 32.66 -92 33.32 -92 34 C-92.66 34 -93.32 34 -94 34 C-94 34.66 -94 35.32 -94 36 C-94.66 36 -95.32 36 -96 36 C-96 36.66 -96 37.32 -96 38 C-96.66 38 -97.32 38 -98 38 C-98 38.66 -98 39.32 -98 40 C-98.66 40 -99.32 40 -100 40 C-100 41.32 -100 42.64 -100 44 C-100.66 44 -101.32 44 -102 44 C-102 44.66 -102 45.32 -102 46 C-102.66 46 -103.32 46 -104 46 C-104 47.32 -104 48.64 -104 50 C-104.66 50 -105.32 50 -106 50 C-106 50.66 -106 51.32 -106 52 C-106.66 52 -107.32 52 -108 52 C-108 53.32 -108 54.64 -108 56 C-108.66 56 -109.32 56 -110 56 C-110 57.32 -110 58.64 -110 60 C-110.66 60 -111.32 60 -112 60 C-112.63315012 61.78880277 -113.25599879 63.58125198 -113.875 65.375 C-114.22304687 66.37273437 -114.57109375 67.37046875 -114.9296875 68.3984375 C-117.8408936 78.19453976 -118.25311689 87.46025443 -118.125 97.625 C-118.11494398 99.02473314 -118.10582279 100.42447331 -118.09765625 101.82421875 C-118.07426238 105.21632925 -118.04148173 108.6080706 -118 112 C-117.34 112 -116.68 112 -116 112 C-116 114.64 -116 117.28 -116 120 C-115.34 120 -114.68 120 -114 120 C-114 121.98 -114 123.96 -114 126 C-113.34 126 -112.68 126 -112 126 C-112 127.32 -112 128.64 -112 130 C-111.34 130 -110.68 130 -110 130 C-110 131.32 -110 132.64 -110 134 C-109.34 134 -108.68 134 -108 134 C-108 135.32 -108 136.64 -108 138 C-107.34 138 -106.68 138 -106 138 C-106 139.32 -106 140.64 -106 142 C-105.34 142 -104.68 142 -104 142 C-104 143.32 -104 144.64 -104 146 C-103.34 146 -102.68 146 -102 146 C-102 146.66 -102 147.32 -102 148 C-101.34 148 -100.68 148 -100 148 C-100 148.66 -100 149.32 -100 150 C-99.34 150 -98.68 150 -98 150 C-98 151.32 -98 152.64 -98 154 C-97.34 154 -96.68 154 -96 154 C-96 154.66 -96 155.32 -96 156 C-95.34 156 -94.68 156 -94 156 C-94 156.66 -94 157.32 -94 158 C-93.34 158 -92.68 158 -92 158 C-92 158.66 -92 159.32 -92 160 C-91.34 160 -90.68 160 -90 160 C-90 160.66 -90 161.32 -90 162 C-89.34 162 -88.68 162 -88 162 C-88 162.66 -88 163.32 -88 164 C-86.68 164 -85.36 164 -84 164 C-84 164.66 -84 165.32 -84 166 C-83.34 166 -82.68 166 -82 166 C-82 166.66 -82 167.32 -82 168 C-80.68 168 -79.36 168 -78 168 C-78 168.66 -78 169.32 -78 170 C-77.34 170 -76.68 170 -76 170 C-76 170.66 -76 171.32 -76 172 C-74.68 172 -73.36 172 -72 172 C-72 172.66 -72 173.32 -72 174 C-70.68 174 -69.36 174 -68 174 C-68 174.66 -68 175.32 -68 176 C-66.68 176 -65.36 176 -64 176 C-64 176.66 -64 177.32 -64 178 C-62.68 178 -61.36 178 -60 178 C-60 178.66 -60 179.32 -60 180 C-54.42932723 181.59162079 -49.78898419 182.20674944 -44 182 C-44 182.66 -44 183.32 -44 184 C-36.08 184 -28.16 184 -20 184 C-20 183.34 -20 182.68 -20 182 C-16.04 182 -12.08 182 -8 182 C-8 181.34 -8 180.68 -8 180 C-7.13375 180.04125 -6.2675 180.0825 -5.375 180.125 C-1.87641532 179.99542279 0.74551597 179.23980344 4 178 C4 177.34 4 176.68 4 176 C5.32 176 6.64 176 8 176 C8 175.34 8 174.68 8 174 C9.32 174 10.64 174 12 174 C12 173.34 12 172.68 12 172 C13.32 172 14.64 172 16 172 C16 171.34 16 170.68 16 170 C16.66 170 17.32 170 18 170 C18 169.34 18 168.68 18 168 C19.32 168 20.64 168 22 168 C22 167.34 22 166.68 22 166 C22.66 166 23.32 166 24 166 C24 165.34 24 164.68 24 164 C24.66 164 25.32 164 26 164 C26 163.34 26 162.68 26 162 C26.928125 161.7834375 26.928125 161.7834375 27.875 161.5625 C30.03258322 161.06847775 30.03258322 161.06847775 32 160 C32 159.34 32 158.68 32 158 C32.66 158 33.32 158 34 158 C34 157.34 34 156.68 34 156 C34.66 156 35.32 156 36 156 C36 154.68 36 153.36 36 152 C36.66 152 37.32 152 38 152 C38 151.34 38 150.68 38 150 C38.66 150 39.32 150 40 150 C40 149.34 40 148.68 40 148 C40.66 148 41.32 148 42 148 C42 146.68 42 145.36 42 144 C42.66 144 43.32 144 44 144 C44 143.34 44 142.68 44 142 C44.66 142 45.32 142 46 142 C46 140.68 46 139.36 46 138 C46.66 138 47.32 138 48 138 C48 136.68 48 135.36 48 134 C48.66 134 49.32 134 50 134 C50 132.68 50 131.36 50 130 C50.66 130 51.32 130 52 130 C53.59138085 125.82262526 54.21278058 122.46839215 54 118 C54.66 118 55.32 118 56 118 C56 116.68 56 115.36 56 114 C55.41734375 114.00902344 54.8346875 114.01804687 54.234375 114.02734375 C43.69713802 113.64628015 35.88683209 108.36210605 28.75 100.875 C12.00481059 81.18265725 3.52928289 56.96205049 3.875 31.3125 C3.88402344 30.02666016 3.89304687 28.74082031 3.90234375 27.41601562 C3.9256811 24.27714268 3.95841967 21.13867524 4 18 C4.66 18 5.32 18 6 18 C6 16.68 6 15.36 6 14 C4.02 14 2.04 14 0 14 C0 13.34 0 12.68 0 12 C-5.94 10.515 -5.94 10.515 -12 9 C-12 8.67 -12 8.34 -12 8 C-23.88 8 -35.76 8 -48 8 Z " fill="#9662EB" transform="translate(192,92)"/>
<path d="M0 0 C1.24652344 0.43183594 2.49304688 0.86367187 3.77734375 1.30859375 C12.50042808 4.50042808 12.50042808 4.50042808 15 7 C14.071875 7.7425 13.14375 8.485 12.1875 9.25 C9.72873042 11.29025561 7.78352451 13.32471323 6 16 C6 15.34 6 14.68 6 14 C4.02 14 2.04 14 0 14 C0 13.34 0 12.68 0 12 C-4.65499974 11.18537505 -9.30976546 10.56606279 -14 10 C-14 9.67 -14 9.34 -14 9 C-25.22 8.67 -36.44 8.34 -48 8 C-48 8.66 -48 9.32 -48 10 C-52.26616316 11.13764351 -55.56486311 12 -60 12 C-60 12.66 -60 13.32 -60 14 C-61.98 14 -63.96 14 -66 14 C-66 14.66 -66 15.32 -66 16 C-67.32 16 -68.64 16 -70 16 C-70 16.66 -70 17.32 -70 18 C-71.32 18 -72.64 18 -74 18 C-74 18.66 -74 19.32 -74 20 C-75.32 20 -76.64 20 -78 20 C-78 20.66 -78 21.32 -78 22 C-78.66 22 -79.32 22 -80 22 C-80 22.66 -80 23.32 -80 24 C-80.66 24 -81.32 24 -82 24 C-82 24.66 -82 25.32 -82 26 C-83.32 26 -84.64 26 -86 26 C-86 26.66 -86 27.32 -86 28 C-86.66 28 -87.32 28 -88 28 C-88 28.66 -88 29.32 -88 30 C-88.66 30 -89.32 30 -90 30 C-90 30.66 -90 31.32 -90 32 C-90.66 32 -91.32 32 -92 32 C-92 32.66 -92 33.32 -92 34 C-92.66 34 -93.32 34 -94 34 C-94 34.66 -94 35.32 -94 36 C-94.66 36 -95.32 36 -96 36 C-96 36.66 -96 37.32 -96 38 C-96.66 38 -97.32 38 -98 38 C-98 38.66 -98 39.32 -98 40 C-98.66 40 -99.32 40 -100 40 C-100 41.32 -100 42.64 -100 44 C-100.66 44 -101.32 44 -102 44 C-102 44.66 -102 45.32 -102 46 C-102.66 46 -103.32 46 -104 46 C-104 47.32 -104 48.64 -104 50 C-104.66 50 -105.32 50 -106 50 C-106 50.66 -106 51.32 -106 52 C-106.66 52 -107.32 52 -108 52 C-108 53.32 -108 54.64 -108 56 C-108.66 56 -109.32 56 -110 56 C-110 57.32 -110 58.64 -110 60 C-110.66 60 -111.32 60 -112 60 C-112.12375 60.8559375 -112.2475 61.711875 -112.375 62.59375 C-113 66 -113 66 -113.9375 69.03125 C-118.21695394 83.00240845 -117.83585605 97.51005153 -118 112 C-117.34 112 -116.68 112 -116 112 C-116 114.64 -116 117.28 -116 120 C-115.34 120 -114.68 120 -114 120 C-114 121.98 -114 123.96 -114 126 C-113.34 126 -112.68 126 -112 126 C-112 127.32 -112 128.64 -112 130 C-111.34 130 -110.68 130 -110 130 C-110 131.32 -110 132.64 -110 134 C-109.34 134 -108.68 134 -108 134 C-108 135.32 -108 136.64 -108 138 C-107.34 138 -106.68 138 -106 138 C-106 138.66 -106 139.32 -106 140 C-107.32 140 -108.64 140 -110 140 C-110 141.98 -110 143.96 -110 146 C-110.66 146 -111.32 146 -112 146 C-112.33 147.65 -112.66 149.3 -113 151 C-117.4063089 145.78650089 -120.12241594 140.15073898 -123 134 C-123.38542969 133.19433594 -123.77085938 132.38867188 -124.16796875 131.55859375 C-133.36789387 110.72657939 -132.80148111 83.25295292 -124.94824219 62.12036133 C-114.78117744 36.28831652 -96.4208844 15.07116819 -70.9375 3.625 C-48.74134859 -5.26857713 -22.88573874 -8.09722952 0 0 Z " fill="#9763ED" transform="translate(192,92)"/>
<path d="M0 0 C1.32 0.66 2.64 1.32 4 2 C4 2.66 4 3.32 4 4 C4.66 4 5.32 4 6 4 C7.53301416 5.94864472 8.93392538 7.88321451 10.3125 9.9375 C10.71549316 10.53361084 11.11848633 11.12972168 11.53369141 11.74389648 C12.70152623 13.48812341 13.85409142 15.24130886 15 17 C15.52722656 17.80695313 16.05445313 18.61390625 16.59765625 19.4453125 C19.53936842 24.32117793 20.94548489 29.07355576 22.1796875 34.61328125 C23.2981696 39.23101451 24.77193698 43.7156605 26.28710938 48.21704102 C28.69887378 55.61668734 29.15570641 62.75669794 29.0625 70.5 C29.05798828 71.22703125 29.05347656 71.9540625 29.04882812 72.703125 C29.03721193 74.46878681 29.01928441 76.2344053 29 78 C28.67 78 28.34 78 28 78 C27.67 74.37 27.34 70.74 27 67 C25.39125 67.061875 23.7825 67.12375 22.125 67.1875 C16.46346991 67.1875 11.15503575 66.45141622 6 64 C5.34 63.01 4.68 62.02 4 61 C3.37351563 62.010625 2.74703125 63.02125 2.1015625 64.0625 C1.27641496 65.37523472 0.45087377 66.68772205 -0.375 68 C-0.7875 68.66773438 -1.2 69.33546875 -1.625 70.0234375 C-2.69660955 71.71727194 -3.84330499 73.36308864 -5 75 C-5.66 75 -6.32 75 -7 75 C-18.04786717 59.79674135 -26.21330957 40.88057025 -27 22 C-18.585 23.485 -18.585 23.485 -10 25 C-9.67 23.35 -9.34 21.7 -9 20 C-6.74487697 14.63465153 -4.14804974 9.14804974 0 5 C0.99 5 1.98 5 3 5 C2.01 3.35 1.02 1.7 0 0 Z " fill="#D9D5E2" transform="translate(231,109)"/>
<path d="M0 0 C0.66 0 1.32 0 2 0 C1.98428955 0.65371582 1.9685791 1.30743164 1.95239258 1.98095703 C1.33251291 31.72995001 8.22399712 57.05476589 28 80 C30.24954199 82.19991974 32.50243782 84.07479582 35 86 C35.66 86.66 36.32 87.32 37 88 C20.83 88 4.66 88 -12 88 C-12 88.66 -12 89.32 -12 90 C-12.72445312 90.12117188 -13.44890625 90.24234375 -14.1953125 90.3671875 C-18.39788679 91.09563371 -22.39826182 91.79212681 -26.4375 93.1875 C-29.24161352 94.07660917 -30.26602808 93.81845019 -33 93 C-24.49251105 88.30222958 -15.77557174 85.6589036 -6.45703125 83.0390625 C-0.55697996 81.3139013 4.4718587 79.5262472 9.50732422 75.953125 C11 75 11 75 13 75 C11.34193014 64.55415991 7.68391336 54.75307232 3.7890625 44.953125 C0.95999362 37.76346124 -0.14954522 30.66528326 -1 23 C-2.051875 23.309375 -3.10375 23.61875 -4.1875 23.9375 C-7.12752396 24.75685094 -10.00161623 25.45483931 -13 26 C-13 26.66 -13 27.32 -13 28 C-15.17684566 29.61281703 -17.34985446 31.09945079 -19.625 32.5625 C-20.30071045 33.00360107 -20.9764209 33.44470215 -21.67260742 33.89916992 C-23.08263852 34.8180131 -24.49470697 35.73373661 -25.90869141 36.64648438 C-27.86756553 37.9142871 -29.81598846 39.19652377 -31.76171875 40.484375 C-39.84409676 45.8037254 -47.97213172 50.46183721 -57 54 C-57.48408568 69.00665608 -52.83976147 81.94064642 -43.06640625 93.44921875 C-42 95 -42 95 -42 98 C-43.32 98 -44.64 98 -46 98 C-46 98.66 -46 99.32 -46 100 C-51.28 100 -56.56 100 -62 100 C-62 99.34 -62 98.68 -62 98 C-63.32 98 -64.64 98 -66 98 C-66 97.34 -66 96.68 -66 96 C-66.66 96 -67.32 96 -68 96 C-68 95.34 -68 94.68 -68 94 C-68.66 94 -69.32 94 -70 94 C-70 93.34 -70 92.68 -70 92 C-70.66 92 -71.32 92 -72 92 C-72 90.68 -72 89.36 -72 88 C-72.66 88 -73.32 88 -74 88 C-74 86.68 -74 85.36 -74 84 C-74.66 84 -75.32 84 -76 84 C-76 82.02 -76 80.04 -76 78 C-76.66 78 -77.32 78 -78 78 C-78 72.72 -78 67.44 -78 62 C-77.34 62 -76.68 62 -76 62 C-76 60.68 -76 59.36 -76 58 C-75.34 58 -74.68 58 -74 58 C-74 57.34 -74 56.68 -74 56 C-73.34 56 -72.68 56 -72 56 C-72 55.34 -72 54.68 -72 54 C-71.34 54 -70.68 54 -70 54 C-70 53.34 -70 52.68 -70 52 C-68.68 52 -67.36 52 -66 52 C-66 51.34 -66 50.68 -66 50 C-64.68 50 -63.36 50 -62 50 C-62 49.34 -62 48.68 -62 48 C-60.68 48 -59.36 48 -58 48 C-58 47.34 -58 46.68 -58 46 C-56.68 46 -55.36 46 -54 46 C-54 45.34 -54 44.68 -54 44 C-52.68 44 -51.36 44 -50 44 C-50 43.34 -50 42.68 -50 42 C-48.68 42 -47.36 42 -46 42 C-46 41.34 -46 40.68 -46 40 C-44.68 40 -43.36 40 -42 40 C-42 39.34 -42 38.68 -42 38 C-40.68 38 -39.36 38 -38 38 C-38 37.34 -38 36.68 -38 36 C-37.34 36 -36.68 36 -36 36 C-36 35.34 -36 34.68 -36 34 C-34.68 34 -33.36 34 -32 34 C-32 33.34 -32 32.68 -32 32 C-31.34 32 -30.68 32 -30 32 C-30 31.34 -30 30.68 -30 30 C-29.34 30 -28.68 30 -28 30 C-28 29.34 -28 28.68 -28 28 C-26.68 28 -25.36 28 -24 28 C-24 27.34 -24 26.68 -24 26 C-23.34 26 -22.68 26 -22 26 C-22 25.34 -22 24.68 -22 24 C-21.34 24 -20.68 24 -20 24 C-20 23.34 -20 22.68 -20 22 C-19.34 22 -18.68 22 -18 22 C-18 21.34 -18 20.68 -18 20 C-17.34 20 -16.68 20 -16 20 C-16 19.34 -16 18.68 -16 18 C-15.34 18 -14.68 18 -14 18 C-14 17.34 -14 16.68 -14 16 C-13.34 16 -12.68 16 -12 16 C-12 15.34 -12 14.68 -12 14 C-11.34 14 -10.68 14 -10 14 C-10 13.34 -10 12.68 -10 12 C-9.34 12 -8.68 12 -8 12 C-8 11.34 -8 10.68 -8 10 C-7.34 10 -6.68 10 -6 10 C-6 9.34 -6 8.68 -6 8 C-5.34 8 -4.68 8 -4 8 C-4 6.68 -4 5.36 -4 4 C-3.34 4 -2.68 4 -2 4 C-2 3.34 -2 2.68 -2 2 C-1.34 2 -0.68 2 0 2 C0 1.34 0 0.68 0 0 Z " fill="#EDEAEF" transform="translate(194,114)"/>
<path d="M0 0 C0.33 0.66 0.66 1.32 1 2 C-1.475 1.505 -1.475 1.505 -4 1 C-3.95875 2.27875 -3.9175 3.5575 -3.875 4.875 C-3.8832023 10.11627034 -4.75759893 14.92236085 -6 20 C-6.21785156 20.93070313 -6.43570313 21.86140625 -6.66015625 22.8203125 C-6.89605469 23.72523437 -7.13195312 24.63015625 -7.375 25.5625 C-7.58898437 26.38878906 -7.80296875 27.21507812 -8.0234375 28.06640625 C-9 30 -9 30 -10.6640625 30.90234375 C-14.02115175 31.04269029 -16.8313861 30.03589301 -20 29 C-16.62911381 46.13203332 -12.10827444 64.07795657 -1.29296875 78.234375 C0 80 0 80 0 82 C3.03379835 79.18290153 5.09399688 76.41194794 7.125 72.8125 C9.78367347 68.10816327 9.78367347 68.10816327 12 67 C12.33 67.99 12.66 68.98 13 70 C19.49359906 73.1265477 26.90913315 73.60905867 34 74 C34.33 73.34 34.66 72.68 35 72 C36.08674929 91.78286198 36.08674929 91.78286198 30.5078125 98.6015625 C26.97217888 101.88072529 22.91156969 101.57702348 18.296875 101.52734375 C8.5900076 99.97470501 0.65201845 90.51874015 -5 83 C-12.22400465 71.75249909 -17.81231349 59.6883322 -22 47 C-22.30164063 46.15824219 -22.60328125 45.31648438 -22.9140625 44.44921875 C-25.07763844 37.46309271 -25.34316679 30.57155546 -25.4375 23.3125 C-25.45973633 22.33829102 -25.48197266 21.36408203 -25.50488281 20.36035156 C-25.48317119 13.26547572 -24.28574925 6.97770627 -19.65869141 1.3762207 C-13.29602805 -4.57570982 -7.18137424 -3.34305353 0 0 Z " fill="#F3F1F6" transform="translate(224,102)"/>
<path d="M0 0 C0 0.66 0 1.32 0 2 C0.66 2 1.32 2 2 2 C2 3.98 2 5.96 2 8 C2.66 8 3.32 8 4 8 C4 9.98 4 11.96 4 14 C4.66 14 5.32 14 6 14 C6 15.32 6 16.64 6 18 C6.66 18 7.32 18 8 18 C8 19.98 8 21.96 8 24 C8.66 24 9.32 24 10 24 C10 25.98 10 27.96 10 30 C10.66 30 11.32 30 12 30 C12 33.96 12 37.92 12 42 C11.34 42 10.68 42 10 42 C10 42.66 10 43.32 10 44 C9.34 44 8.68 44 8 44 C8 44.66 8 45.32 8 46 C7.34 46 6.68 46 6 46 C6 46.66 6 47.32 6 48 C2.7 48 -0.6 48 -4 48 C-4 47.34 -4 46.68 -4 46 C-5.32 46 -6.64 46 -8 46 C-8 45.34 -8 44.68 -8 44 C-8.66 44 -9.32 44 -10 44 C-10 42.68 -10 41.36 -10 40 C-10.66 40 -11.32 40 -12 40 C-12 38.68 -12 37.36 -12 36 C-12.66 36 -13.32 36 -14 36 C-14 34.02 -14 32.04 -14 30 C-14.66 30 -15.32 30 -16 30 C-16 28.68 -16 27.36 -16 26 C-16.66 26 -17.32 26 -18 26 C-18 24.68 -18 23.36 -18 22 C-18.66 22 -19.32 22 -20 22 C-20 20.02 -20 18.04 -20 16 C-20.66 16 -21.32 16 -22 16 C-22 14.68 -22 13.36 -22 12 C-22.66 12 -23.32 12 -24 12 C-24 10.68 -24 9.36 -24 8 C-24.66 8 -25.32 8 -26 8 C-24.55370416 5.10740831 -23.06512057 5.02170686 -20 4 C-17.76600518 3.46451061 -15.52572045 2.97918598 -13.27734375 2.5078125 C-11.22607503 2.05041124 -9.20322046 1.46980276 -7.1875 0.875 C-4 0 -4 0 0 0 Z " fill="#FCFCF9" transform="translate(178,204)"/>
<path d="M0 0 C1.6328125 1.1015625 1.6328125 1.1015625 3.8828125 3.1015625 C4.25591553 2.61405518 4.62901855 2.12654785 5.01342773 1.62426758 C7.63256793 -0.50914987 9.4448488 -0.27112715 12.79296875 -0.26171875 C13.94732422 -0.26107422 15.10167969 -0.26042969 16.29101562 -0.25976562 C17.49693359 -0.24365234 18.70285156 -0.22753906 19.9453125 -0.2109375 C21.75999023 -0.21577148 21.75999023 -0.21577148 23.61132812 -0.22070312 C32.61591325 -0.16533675 32.61591325 -0.16533675 34.8828125 2.1015625 C34.6328125 5.1640625 34.6328125 5.1640625 33.8828125 8.1015625 C30.92616731 9.5798851 28.14051513 9.16189033 24.8828125 9.1015625 C24.88804932 9.69694824 24.89328613 10.29233398 24.89868164 10.90576172 C24.91943249 13.59601797 24.93246657 16.28625739 24.9453125 18.9765625 C24.95369141 19.91371094 24.96207031 20.85085938 24.97070312 21.81640625 C24.97392578 22.71230469 24.97714844 23.60820312 24.98046875 24.53125 C24.98570557 25.35866699 24.99094238 26.18608398 24.99633789 27.03857422 C24.8828125 29.1015625 24.8828125 29.1015625 23.8828125 31.1015625 C21.2428125 31.1015625 18.6028125 31.1015625 15.8828125 31.1015625 C14.68251342 28.70096433 14.76821507 27.20795601 14.78515625 24.53125 C14.78837891 23.63535156 14.79160156 22.73945313 14.79492188 21.81640625 C14.80749023 20.41068359 14.80749023 20.41068359 14.8203125 18.9765625 C14.82482422 18.03167969 14.82933594 17.08679688 14.83398438 16.11328125 C14.84578893 13.77597863 14.86225491 11.43880189 14.8828125 9.1015625 C13.7896875 9.1221875 12.6965625 9.1428125 11.5703125 9.1640625 C7.8828125 9.1015625 7.8828125 9.1015625 4.8828125 8.1015625 C4.5115625 8.6171875 4.1403125 9.1328125 3.7578125 9.6640625 C1.8828125 11.1015625 1.8828125 11.1015625 -1.2421875 10.8515625 C-4.1171875 10.1015625 -4.1171875 10.1015625 -5.1171875 9.1015625 C-7.11677114 9.06075467 -9.11764004 9.05901894 -11.1171875 9.1015625 C-11.14405303 11.08065648 -11.16352125 13.05985221 -11.1796875 15.0390625 C-11.19128906 16.14121094 -11.20289063 17.24335938 -11.21484375 18.37890625 C-11.42981321 21.01603884 -11.42981321 21.01603884 -10.1171875 22.1015625 C-6.39494151 22.39542403 -5.33932507 22.24965421 -2.1171875 20.1015625 C0.4453125 19.8515625 0.4453125 19.8515625 2.8828125 20.1015625 C3.5428125 20.7615625 4.2028125 21.4215625 4.8828125 22.1015625 C4.73450043 25.58689626 4.55757356 27.44929348 2.0078125 29.9140625 C-2.84059263 32.62346537 -7.69517743 32.72652939 -13.1171875 32.1015625 C-16.5546875 30.2890625 -16.5546875 30.2890625 -19.1171875 28.1015625 C-19.7153125 27.6065625 -20.3134375 27.1115625 -20.9296875 26.6015625 C-24.69366696 21.84706213 -23.73494171 13.74371762 -23.1171875 8.1015625 C-21.63405717 4.55391475 -19.60601023 2.0522177 -16.3125 -0.05078125 C-11.43372527 -1.93457861 -4.83161811 -2.05031765 0 0 Z " fill="#F4F3F6" transform="translate(367.1171875,299.8984375)"/>
<path d="M0 0 C4.8846525 2.26787438 7.73212562 5.1153475 10 10 C10.78662792 16.43443961 10.93122181 22.57762509 7 28 C2.10169674 32.64710822 -2.18896815 33.36069445 -8.75 33.28515625 C-13.02495159 32.74336551 -15.66551179 30.30595996 -18.64453125 27.390625 C-20.6396637 23.87183232 -20.39592177 20.43083362 -20.3125 16.5 C-20.31572266 15.74074219 -20.31894531 14.98148437 -20.32226562 14.19921875 C-20.28518409 10.34948096 -20.25160734 7.20990388 -18 4 C-12.73460919 -0.98826498 -6.99766348 -0.94199316 0 0 Z " fill="#F5F4F8" transform="translate(239,299)"/>
<path d="M0 0 C7.36571071 1.18965087 14.69481007 2.48077909 22 4 C21.67 4.66 21.34 5.32 21 6 C20.34 6 19.68 6 19 6 C19.84097805 17.41361689 19.84097805 17.41361689 24.87890625 27.484375 C26 29 26 29 27 32 C29.64 32 32.28 32 35 32 C35 32.66 35 33.32 35 34 C34.34 34 33.68 34 33 34 C32.7628125 34.67417969 32.525625 35.34835938 32.28125 36.04296875 C30.68972154 39.71609999 28.66485917 42.95454752 26.5 46.3125 C26.09652344 46.95767578 25.69304687 47.60285156 25.27734375 48.26757812 C24.24154258 49.88281262 23.12659452 51.44672883 22 53 C21.34 53 20.68 53 20 53 C9.09578066 37.99441888 0.43669888 18.7383518 0 0 Z " fill="#8A86B0" transform="translate(204,131)"/>
<path d="M0 0 C6.31335906 1.02775613 10.14202869 8.52744867 13.6875 13.4375 C13.72488281 12.66664063 13.76226562 11.89578125 13.80078125 11.1015625 C13.86652344 10.09867187 13.93226563 9.09578125 14 8.0625 C14.05800781 7.06476563 14.11601562 6.06703125 14.17578125 5.0390625 C14.34464844 4.18054688 14.51351563 3.32203125 14.6875 2.4375 C17.91123677 0.28834215 18.95453674 0.05463197 22.6875 0.4375 C25.44694605 3.19694605 24.94555677 4.82986698 24.953125 8.6875 C24.95699219 10.55921875 24.95699219 10.55921875 24.9609375 12.46875 C24.95320313 13.7784375 24.94546875 15.088125 24.9375 16.4375 C24.94523437 17.7471875 24.95296875 19.056875 24.9609375 20.40625 C24.95835937 21.6540625 24.95578125 22.901875 24.953125 24.1875 C24.95086914 25.33734375 24.94861328 26.4871875 24.94628906 27.671875 C24.6875 30.4375 24.6875 30.4375 22.6875 32.4375 C20 33.0625 20 33.0625 16.6875 32.4375 C12.78048592 28.94436453 9.80722933 24.62227288 6.6875 20.4375 C6.63851563 21.13617188 6.58953125 21.83484375 6.5390625 22.5546875 C6.46429688 23.46476562 6.38953125 24.37484375 6.3125 25.3125 C6.24289062 26.21742188 6.17328125 27.12234375 6.1015625 28.0546875 C5.6875 30.4375 5.6875 30.4375 3.6875 32.4375 C0.125 32.625 0.125 32.625 -3.3125 32.4375 C-5.64966009 30.10033991 -4.48412619 24.24917112 -4.49804688 21.13867188 C-4.49796631 20.4598999 -4.49788574 19.78112793 -4.49780273 19.08178711 C-4.49998734 17.01199736 -4.51813491 14.94274207 -4.53710938 12.87304688 C-4.53904297 11.57560547 -4.54097656 10.27816406 -4.54296875 8.94140625 C-4.54707764 7.74330322 -4.55118652 6.5452002 -4.55541992 5.31079102 C-4.25188098 1.72048968 -3.58398991 0.67805215 0 0 Z " fill="#F7F7F9" transform="translate(257.3125,298.5625)"/>
<path d="M0 0 C3 0.25 3 0.25 5 2.25 C5.31884766 4.49658203 5.31884766 4.49658203 5.4140625 7.2578125 C5.45273437 8.24394531 5.49140625 9.23007812 5.53125 10.24609375 C5.5621875 11.27863281 5.593125 12.31117188 5.625 13.375 C5.66367187 14.41527344 5.70234375 15.45554687 5.7421875 16.52734375 C5.83664766 19.10138311 5.92221214 21.67541155 6 24.25 C7.98 23.92 9.96 23.59 12 23.25 C12.01458252 22.65985107 12.02916504 22.06970215 12.04418945 21.46166992 C12.11868844 18.78628771 12.21533995 16.11215108 12.3125 13.4375 C12.33505859 12.50873047 12.35761719 11.57996094 12.38085938 10.62304688 C12.41630859 9.73037109 12.45175781 8.83769531 12.48828125 7.91796875 C12.51446533 7.09578857 12.54064941 6.2736084 12.56762695 5.42651367 C13.0932669 2.78050568 13.86999405 1.86519315 16 0.25 C18.5 -0.125 18.5 -0.125 21 0.25 C23.06849816 1.83337908 23.89909167 2.73417859 24.40405273 5.31542969 C24.43617799 7.87801653 24.457752 10.43720195 24.4375 13 C24.4674707 14.32257813 24.4674707 14.32257813 24.49804688 15.671875 C24.49354526 21.72203904 23.53945856 25.31287591 20 30.25 C15.13750977 33.83898089 9.83956607 34.11406587 4 33.25 C-0.00889525 31.20910787 -2.63548205 29.05712387 -5 25.25 C-5.37231445 22.71630859 -5.37231445 22.71630859 -5.36328125 19.8984375 C-5.36231445 18.37476563 -5.36231445 18.37476563 -5.36132812 16.8203125 C-5.34521484 15.76585937 -5.32910156 14.71140625 -5.3125 13.625 C-5.31572266 12.5628125 -5.31894531 11.500625 -5.32226562 10.40625 C-5.25251121 0.43770927 -5.25251121 0.43770927 0 0 Z " fill="#F2F0F7" transform="translate(422,298.75)"/>
<path d="M0 0 C0.7734375 -0.00773437 1.546875 -0.01546875 2.34375 -0.0234375 C5.05141047 0.47689107 5.73102372 1.29959609 7.5 3.375 C8.46728516 5.3203125 8.46728516 5.3203125 9.2890625 7.5 C9.59070313 8.28890625 9.89234375 9.0778125 10.203125 9.890625 C10.50734375 10.71046875 10.8115625 11.5303125 11.125 12.375 C11.43695313 13.19484375 11.74890625 14.0146875 12.0703125 14.859375 C14.24768733 20.60313964 15.73183566 25.11543718 15.5 31.375 C14.5 32.375 14.5 32.375 11.0625 32.625 C9.886875 32.5425 8.71125 32.46 7.5 32.375 C5.5 29.375 5.5 29.375 5.5 26.375 C1.87 26.375 -1.76 26.375 -5.5 26.375 C-5.83 27.695 -6.16 29.015 -6.5 30.375 C-8.5 32.375 -8.5 32.375 -11.5 32.625 C-14.5 32.375 -14.5 32.375 -16.5 30.375 C-16.98081115 26.26689301 -15.90411519 23.41922373 -14.25 19.6875 C-12.19204224 14.97861361 -10.2799904 10.25116883 -8.4921875 5.43359375 C-6.48118459 1.26115859 -4.64188459 -0.04641885 0 0 Z " fill="#F2EFF6" transform="translate(327.5,298.625)"/>
<path d="M0 0 C7.42279112 0.07341222 7.42279112 0.07341222 10.625 1.9375 C12.8125 4.3125 12.8125 4.3125 13.3125 7.4375 C12.8125 10.3125 12.8125 10.3125 10.8125 12.3125 C8.375 12.625 8.375 12.625 5.8125 12.3125 C4.79230427 11.3331121 3.79100195 10.33354551 2.8125 9.3125 C1.4925 9.3125 0.1725 9.3125 -1.1875 9.3125 C-1.1875 9.9725 -1.1875 10.6325 -1.1875 11.3125 C0.029375 11.580625 1.24625 11.84875 2.5 12.125 C7.06797567 13.26497269 10.45637672 14.95637672 13.8125 18.3125 C14.26203984 22.88282175 14.46006049 25.20924879 12.125 29.1875 C7.78645359 33.17427237 3.82143127 33.69844091 -1.90234375 33.57421875 C-6.34175432 33.06577344 -9.99626082 31.50373918 -13.1875 28.3125 C-13.4375 25.8125 -13.4375 25.8125 -13.1875 23.3125 C-12.5275 22.6525 -11.8675 21.9925 -11.1875 21.3125 C-4.61057692 21.88942308 -4.61057692 21.88942308 -3.1875 23.3125 C-1.18791636 23.35330783 0.81295254 23.35504356 2.8125 23.3125 C-0.62215937 21.02272708 -4.04751661 19.81114302 -7.91015625 18.41015625 C-10.1875 17.3125 -10.1875 17.3125 -12.1875 14.3125 C-12.76359682 9.20992814 -12.76359682 9.20992814 -12.1875 6.3125 C-9.75 3.375 -9.75 3.375 -7.1875 1.3125 C-5.33807253 -0.53692747 -2.48323569 0.0533124 0 0 Z " fill="#F4F4F7" transform="translate(462.1875,298.6875)"/>
<path d="M0 0 C0.66 0 1.32 0 2 0 C1.93039063 1.84851563 1.93039063 1.84851563 1.859375 3.734375 C1.40881091 20.59298148 5.29571297 32.78373752 15.74609375 46.25 C17 48 17 48 17 50 C12.71 50 8.42 50 4 50 C4 49.34 4 48.68 4 48 C2.68 48 1.36 48 0 48 C0 47.34 0 46.68 0 46 C-0.66 46 -1.32 46 -2 46 C-2 45.34 -2 44.68 -2 44 C-2.66 44 -3.32 44 -4 44 C-4 43.34 -4 42.68 -4 42 C-4.66 42 -5.32 42 -6 42 C-6 40.68 -6 39.36 -6 38 C-6.66 38 -7.32 38 -8 38 C-8 36.68 -8 35.36 -8 34 C-8.66 34 -9.32 34 -10 34 C-10 32.02 -10 30.04 -10 28 C-10.66 28 -11.32 28 -12 28 C-12 22.72 -12 17.44 -12 12 C-11.34 12 -10.68 12 -10 12 C-10 10.68 -10 9.36 -10 8 C-9.34 8 -8.68 8 -8 8 C-8 7.34 -8 6.68 -8 6 C-7.34 6 -6.68 6 -6 6 C-6 5.34 -6 4.68 -6 4 C-5.34 4 -4.68 4 -4 4 C-4 3.34 -4 2.68 -4 2 C-2.68 2 -1.36 2 0 2 C0 1.34 0 0.68 0 0 Z " fill="#FCFCFA" transform="translate(128,164)"/>
<path d="M0 0 C0.33 0 0.66 0 1 0 C1.14695313 0.825 1.29390625 1.65 1.4453125 2.5 C5.76955865 24.76738246 15.6068846 47.82197355 34 62 C34.66 62.66 35.32 63.32 36 64 C19.83 64 3.66 64 -13 64 C-13 64.66 -13 65.32 -13 66 C-13.72445312 66.12117188 -14.44890625 66.24234375 -15.1953125 66.3671875 C-19.39788679 67.09563371 -23.39826182 67.79212681 -27.4375 69.1875 C-30.24161352 70.07660917 -31.26602808 69.81845019 -34 69 C-25.49251105 64.30222958 -16.77557174 61.6589036 -7.45703125 59.0390625 C-1.55697996 57.3139013 3.4718587 55.5262472 8.50732422 51.953125 C10 51 10 51 12 51 C10.98122212 44.58169935 9.30444283 38.66372763 7.125 32.5625 C6.73006348 31.45322144 6.73006348 31.45322144 6.32714844 30.3215332 C5.18611537 27.15569145 4.01081362 24.02601203 2.71875 20.91796875 C-0.18161992 13.84313784 -0.43533976 7.60635297 0 0 Z " fill="#DDD9DF" transform="translate(195,138)"/>
<path d="M0 0 C2.85460321 1.18139945 4.80774168 2.80774168 7 5 C7.1875 7.4375 7.1875 7.4375 7 10 C5 12 5 12 2.5625 12.25 C0 12 0 12 -3 10 C-5.58380177 9.74969023 -5.58380177 9.74969023 -8 10 C-9.27870382 11.05600378 -9.27870382 11.05600378 -9.1328125 13.46875 C-9.13023437 14.4690625 -9.12765625 15.469375 -9.125 16.5 C-9.12757813 17.5003125 -9.13015625 18.500625 -9.1328125 19.53125 C-9.27870382 21.94399622 -9.27870382 21.94399622 -8 23 C-4.27775401 23.29386153 -3.22213757 23.14809171 0 21 C3.6875 21.375 3.6875 21.375 7 22 C7.3125 24.75 7.3125 24.75 7 28 C3.44325515 31.4631463 0.73101676 33.14841273 -4.1875 33.25 C-9.78097823 33.16906543 -14.05892004 31.87100487 -18.1640625 27.9140625 C-20.61674001 24.02108925 -20.62909436 21.07132969 -20.5625 16.5625 C-20.59827148 15.45551758 -20.59827148 15.45551758 -20.63476562 14.32617188 C-20.62405865 10.31105668 -20.2138206 7.75922648 -17.65234375 4.58984375 C-12.1158899 -0.81614874 -7.46253971 -0.83682833 0 0 Z " fill="#F5F4F8" transform="translate(209,299)"/>
<path d="M0 0 C0 0.33 0 0.66 0 1 C-0.59167969 1.07476562 -1.18335938 1.14953125 -1.79296875 1.2265625 C-5.94394768 1.91726372 -9.09923593 2.48428652 -11.9375 5.75 C-18.49397281 16.0814117 -17.51921681 31.29177711 -15.125 42.94921875 C-12.63203835 53.07159606 -8.51097499 62.63368073 -4 72 C-3.55140625 72.97324219 -3.1028125 73.94648438 -2.640625 74.94921875 C2.33390093 84.97142539 10.78632557 96.27410312 20.48828125 102.15625 C25.82239031 103.94811245 31.46121831 103.42545407 37 103 C36.34 103.99 35.68 104.98 35 106 C27.73820018 107.26691324 20.61337829 107.02645594 14.1875 103.1875 C-2.64140477 90.72811798 -13.67241393 70.03472508 -19 50 C-19.20367187 49.27039063 -19.40734375 48.54078125 -19.6171875 47.7890625 C-22.23128781 36.43742143 -22.3904306 22.41669653 -20 11 C-19.34 11 -18.68 11 -18 11 C-17.79375 10.113125 -17.5875 9.22625 -17.375 8.3125 C-13.82574706 -0.237973 -8.40274589 -0.74727977 0 0 Z " fill="#673BB1" transform="translate(216,99)"/>
<path d="M0 0 C23.17771729 4.24924817 42.46043031 18.81728984 55.98046875 37.77734375 C64.69084559 51.28625154 72.07563541 66.38559698 76 82 C76.44279297 83.4540625 76.44279297 83.4540625 76.89453125 84.9375 C79.75144812 95.16500149 79.29097449 105.47866084 79 116 C78.01 116 77.02 116 76 116 C75.95512451 115.33581055 75.91024902 114.67162109 75.86401367 113.98730469 C74.82924183 96.75853865 74.82924183 96.75853865 71 80 C70.72414063 79.06027344 70.44828125 78.12054688 70.1640625 77.15234375 C64.02883741 57.25219058 53.79959883 39.59275608 39 25 C38.24976563 24.23945313 37.49953125 23.47890625 36.7265625 22.6953125 C26.78890574 13.20097128 13.49918669 6.4784603 0 4 C0 2.68 0 1.36 0 0 Z " fill="#201E1F" transform="translate(465,138)"/>
<path d="M0 0 C1.16208984 -0.00128906 2.32417969 -0.00257813 3.52148438 -0.00390625 C4.74029297 -0.00003906 5.95910156 0.00382812 7.21484375 0.0078125 C8.43751953 0.00394531 9.66019531 0.00007813 10.91992188 -0.00390625 C12.08072266 -0.00261719 13.24152344 -0.00132812 14.4375 0 C15.5087915 0.00112793 16.58008301 0.00225586 17.68383789 0.00341797 C20.15234375 0.1328125 20.15234375 0.1328125 21.15234375 1.1328125 C21.33984375 4.0703125 21.33984375 4.0703125 21.15234375 7.1328125 C19.15234375 9.1328125 19.15234375 9.1328125 15.52734375 9.2578125 C14.41359375 9.2165625 13.29984375 9.1753125 12.15234375 9.1328125 C12.16281738 9.72819824 12.17329102 10.32358398 12.18408203 10.93701172 C12.22558324 13.62723593 12.25165079 16.31739287 12.27734375 19.0078125 C12.29410156 19.94496094 12.31085938 20.88210938 12.328125 21.84765625 C12.33457031 22.74355469 12.34101563 23.63945312 12.34765625 24.5625 C12.35812988 25.38991699 12.36860352 26.21733398 12.37939453 27.06982422 C12.15234375 29.1328125 12.15234375 29.1328125 10.15234375 31.1328125 C6.65234375 31.3828125 6.65234375 31.3828125 3.15234375 31.1328125 C1.15234375 29.1328125 1.15234375 29.1328125 0.92529297 27.06982422 C0.9357666 26.24240723 0.94624023 25.41499023 0.95703125 24.5625 C0.96669922 23.21865234 0.96669922 23.21865234 0.9765625 21.84765625 C0.99332031 20.91050781 1.01007813 19.97335937 1.02734375 19.0078125 C1.03636719 18.06292969 1.04539062 17.11804688 1.0546875 16.14453125 C1.07829853 13.80703958 1.11122859 11.47005127 1.15234375 9.1328125 C-0.51828125 9.1946875 -0.51828125 9.1946875 -2.22265625 9.2578125 C-5.84765625 9.1328125 -5.84765625 9.1328125 -7.84765625 7.1328125 C-7.97265625 4.0078125 -7.97265625 4.0078125 -7.84765625 1.1328125 C-5.14669548 -0.21766789 -3.02039108 0.00317673 0 0 Z " fill="#F2F2F7" transform="translate(292.84765625,299.8671875)"/>
<path d="M0 0 C1.06734375 -0.00257813 2.1346875 -0.00515625 3.234375 -0.0078125 C4.91273438 0.00378906 4.91273438 0.00378906 6.625 0.015625 C7.74390625 0.00789063 8.8628125 0.00015625 10.015625 -0.0078125 C11.08296875 -0.00523437 12.1503125 -0.00265625 13.25 0 C14.23226563 0.00225586 15.21453125 0.00451172 16.2265625 0.00683594 C18.625 0.265625 18.625 0.265625 20.625 2.265625 C20.375 5.328125 20.375 5.328125 19.625 8.265625 C16.66835481 9.7439476 13.88270263 9.32595283 10.625 9.265625 C10.63285522 10.15870361 10.63285522 10.15870361 10.64086914 11.06982422 C10.66161999 13.76008047 10.67465407 16.45031989 10.6875 19.140625 C10.69587891 20.07777344 10.70425781 21.01492188 10.71289062 21.98046875 C10.71772461 23.32431641 10.71772461 23.32431641 10.72265625 24.6953125 C10.73051147 25.93643799 10.73051147 25.93643799 10.73852539 27.20263672 C10.625 29.265625 10.625 29.265625 9.625 31.265625 C6.985 31.265625 4.345 31.265625 1.625 31.265625 C0.42470092 28.86502683 0.51040257 27.37201851 0.52734375 24.6953125 C0.53056641 23.79941406 0.53378906 22.90351563 0.53710938 21.98046875 C0.54548828 21.04332031 0.55386719 20.10617187 0.5625 19.140625 C0.56701172 18.19574219 0.57152344 17.25085938 0.57617188 16.27734375 C0.58797643 13.94004113 0.60444241 11.60286439 0.625 9.265625 C-1.0765625 9.2965625 -1.0765625 9.2965625 -2.8125 9.328125 C-6.375 9.265625 -6.375 9.265625 -7.375 8.265625 C-7.5625 5.328125 -7.5625 5.328125 -7.375 2.265625 C-4.76631631 -0.34305869 -3.62967636 0.00833587 0 0 Z " fill="#F9FAF9" transform="translate(381.375,299.734375)"/>
<path d="M0 0 C0.33 0.66 0.66 1.32 1 2 C-1.475 1.505 -1.475 1.505 -4 1 C-3.95875 2.27875 -3.9175 3.5575 -3.875 4.875 C-3.8832023 10.11627034 -4.75759893 14.92236085 -6 20 C-6.21785156 20.93070313 -6.43570313 21.86140625 -6.66015625 22.8203125 C-6.89605469 23.72523437 -7.13195312 24.63015625 -7.375 25.5625 C-7.58898437 26.38878906 -7.80296875 27.21507812 -8.0234375 28.06640625 C-9 30 -9 30 -10.8671875 30.8359375 C-14.14432777 31.08802521 -16.91055804 30.01000987 -20 29 C-20.33 30.32 -20.66 31.64 -21 33 C-21.08174796 30.16607074 -21.14084985 27.33455181 -21.1875 24.5 C-21.21263672 23.70851563 -21.23777344 22.91703125 -21.26367188 22.1015625 C-21.3447638 15.50608611 -20.25911071 10.06593597 -16.25 4.625 C-13.332139 2.51765594 -10.48196931 1.80353138 -7 1 C-8.96822886 -0.96822886 -12.34808709 -0.66248381 -15 -1 C-15 -1.33 -15 -1.66 -15 -2 C-8.96498194 -3.38302497 -5.62718496 -2.61955162 0 0 Z " fill="#DDDAE5" transform="translate(224,102)"/>
<path d="M0 0 C1.65 0 3.3 0 5 0 C4.96519531 1.45019531 4.96519531 1.45019531 4.9296875 2.9296875 C4.70235068 19.33041487 8.09445239 32.68563454 18.93359375 45.44921875 C20 47 20 47 20 50 C18.68 50 17.36 50 16 50 C16 50.66 16 51.32 16 52 C15.01 52 14.02 52 13 52 C11.19581575 49.7410047 9.62224935 47.54509187 8.0625 45.125 C7.39154297 44.10031616 7.39154297 44.10031616 6.70703125 43.05493164 C3.42243046 37.92455427 0.86052312 32.81413476 -1 27 C-1.35707031 26.09894531 -1.71414062 25.19789063 -2.08203125 24.26953125 C-3.23205988 20.17347183 -3.25639661 16.47807593 -3.1875 12.25 C-3.18685547 11.48300781 -3.18621094 10.71601563 -3.18554688 9.92578125 C-3.14091099 4.28182199 -3.14091099 4.28182199 -2 2 C-1.34 2 -0.68 2 0 2 C0 1.34 0 0.68 0 0 Z " fill="#C9C8FA" transform="translate(132,162)"/>
<path d="M0 0 C6.48490842 1.54882279 10.47598418 2.9104822 15 8 C18.27928174 10.73527686 21.63711698 13.36846241 25 16 C23.28185822 19.77991191 21.85055846 21.24974616 18 23 C14.6875 23.1875 14.6875 23.1875 12 23 C12 22.34 12 21.68 12 21 C11.34 20.95875 10.68 20.9175 10 20.875 C3.16222164 18.88064798 -1.54262352 14.05040884 -5 8 C-3.35 5.36 -1.7 2.72 0 0 Z " fill="#DEDAE5" transform="translate(230,176)"/>
<path d="M0 0 C5.24972347 4.10037573 9.20962911 8.52964787 13 14 C5.76296895 17.81352534 -1.60697552 21.22026015 -9.125 24.4375 C-9.96651611 24.80359375 -10.80803223 25.1696875 -11.67504883 25.546875 C-12.46548584 25.88074219 -13.25592285 26.21460937 -14.0703125 26.55859375 C-14.77945801 26.86079834 -15.48860352 27.16300293 -16.21923828 27.47436523 C-18 28 -18 28 -20 27 C-5.92423428 7.36759318 -5.92423428 7.36759318 0 0 Z " fill="#060606" transform="translate(299,74)"/>
<path d="M0 0 C0.66 0.33 1.32 0.66 2 1 C1.54560547 2.32837891 1.54560547 2.32837891 1.08203125 3.68359375 C-2.19956951 13.38703476 -5.16860425 23.15638158 -8 33 C-11.89608498 31.51095825 -15.59097018 29.75621287 -19.3125 27.875 C-20.38113281 27.33617187 -21.44976562 26.79734375 -22.55078125 26.2421875 C-23.35902344 25.83226562 -24.16726562 25.42234375 -25 25 C-23.39517978 20.7441793 -20.17841337 18.14115115 -16.875 15.1875 C-16.29258545 14.65850098 -15.7101709 14.12950195 -15.11010742 13.58447266 C-11.2764051 10.11242032 -7.40830071 6.67909397 -3.48828125 3.3046875 C-2.28385674 2.24884029 -1.13257488 1.13257488 0 0 Z " fill="#040404" transform="translate(230,509)"/>
<path d="M0 0 C1.32 0 2.64 0 4 0 C4.07476562 0.72960937 4.14953125 1.45921875 4.2265625 2.2109375 C7.19879759 25.81398088 18.04326444 48.26355878 36.1953125 63.921875 C41.47218646 67.83175933 47.20332736 70.9346126 53 74 C53 74.99 53 75.98 53 77 C39.49300551 74.76062046 28.16952337 63.31060663 20 53 C18.11303787 50.25905699 16.33048883 47.48584331 14.60546875 44.640625 C13.45180961 42.74312237 12.22611016 40.88873563 10.95703125 39.06640625 C5.98638801 31.27807303 3.81942262 21.85623608 1.6875 12.9375 C1.51605469 12.22360107 1.34460938 11.50970215 1.16796875 10.77416992 C0.33682413 7.12276113 -0.19719046 3.74661877 0 0 Z " fill="#1D1D1D" transform="translate(120,385)"/>
<path d="M0 0 C5.26505422 1.91456517 7.91450318 6.55180552 10.625 11.25 C12.1531001 16.34366701 13.2219551 23.05608981 10.75 28 C7.91564044 28.05668719 6.32392205 28.05226473 3.75 27 C-3.46313396 19.24954455 -4.5758592 11.17404849 -4.25 1 C-2.25 0 -2.25 0 0 0 Z " fill="#FAFAFB" transform="translate(227.25,136)"/>
<path d="M0 0 C0.66 0.99 1.32 1.98 2 3 C8.59592608 6.02044364 15.84529105 6.60553886 23 7 C23.33 6.34 23.66 5.68 24 5 C24 11.27 24 17.54 24 24 C22.68 24.33 21.36 24.66 20 25 C17.875 23.0625 17.875 23.0625 16.63671875 21.671875 C13.72326836 18.69584453 10.31655807 16.29278813 7.01171875 13.76953125 C6.34785156 13.18558594 5.68398437 12.60164062 5 12 C5 11.34 5 10.68 5 10 C3.88625 9.855625 2.7725 9.71125 1.625 9.5625 C-2 9 -2 9 -4 8 C-2.25 2.25 -2.25 2.25 0 0 Z " fill="#FCFBFB" transform="translate(235,169)"/>
<path d="M0 0 C0.66 0 1.32 0 2 0 C0.31112216 13.97902498 -13.00617194 26.01622344 -23.375 34.6875 C-25.23536038 36.14389641 -27.11112011 37.58078754 -29 39 C-29.51755859 39.39251953 -30.03511719 39.78503906 -30.56835938 40.18945312 C-37.50103884 45.41588173 -44.67622582 50.16514816 -52.125 54.625 C-53.209021 55.28230103 -53.209021 55.28230103 -54.31494141 55.95288086 C-54.99733887 56.3525708 -55.67973633 56.75226074 -56.3828125 57.1640625 C-56.98496582 57.51936035 -57.58711914 57.8746582 -58.20751953 58.24072266 C-60 59 -60 59 -64 59 C-62.54384826 54.63154479 -59.14672481 53.55573988 -55.3125 51.4375 C-34.05315194 39.29217106 -13.76151329 24.03702561 -1.55859375 2.421875 C-0.78708984 1.22304688 -0.78708984 1.22304688 0 0 Z " fill="#181719" transform="translate(507,491)"/>
<path d="M0 0 C8.00531915 1.00531915 8.00531915 1.00531915 11 4 C14 8.39285714 14 8.39285714 14 11 C13.01 11.33 12.02 11.66 11 12 C6.51277648 17.80279587 3.23354285 24.03660169 1 31 C-1.31 30.67 -3.62 30.34 -6 30 C-5.73445312 29.175 -5.46890625 28.35 -5.1953125 27.5 C-2.39549166 18.34438148 -0.93792624 9.50267374 0 0 Z " fill="#F7F5F8" transform="translate(220,103)"/>
<path d="M0 0 C5.68507992 1.60665302 11.34428139 3.29304267 17 5 C16.3212527 11.19464308 14.6957044 16.96939552 12.9375 22.9375 C12.51500977 24.3925293 12.51500977 24.3925293 12.08398438 25.87695312 C11.39353534 28.25256591 10.69877999 30.62682705 10 33 C7.93974329 29.90961494 7.10463655 27.45158665 6.0546875 23.90625 C5.70019531 22.71128906 5.34570312 21.51632813 4.98046875 20.28515625 C4.43326172 18.41150391 4.43326172 18.41150391 3.875 16.5 C3.50246094 15.25089844 3.12992188 14.00179687 2.74609375 12.71484375 C0 3.39019574 0 3.39019574 0 0 Z " fill="#080808" transform="translate(251,72)"/>
<path d="M0 0 C0 5.94 0 11.88 0 18 C-2.85630411 16.75471186 -5.70999815 15.50394469 -8.5625 14.25 C-9.76229492 13.72792969 -9.76229492 13.72792969 -10.98632812 13.1953125 C-15.84408896 11.05393222 -20.4390742 8.71818934 -25 6 C-22.05110993 4.03407328 -20.54133402 3.55115549 -17.1484375 2.9296875 C-16.21515625 2.75566406 -15.281875 2.58164063 -14.3203125 2.40234375 C-13.34835937 2.22832031 -12.37640625 2.05429688 -11.375 1.875 C-10.3953125 1.69324219 -9.415625 1.51148437 -8.40625 1.32421875 C-1.21763393 0 -1.21763393 0 0 0 Z " fill="#030303" transform="translate(298,115)"/>
<path d="M0 0 C9.24 0.99 18.48 1.98 28 3 C24.48107266 6.51892734 20.76861958 8.68975181 16.5 11.1875 C15.72785156 11.65091797 14.95570313 12.11433594 14.16015625 12.59179688 C13.04447266 13.24825195 13.04447266 13.24825195 11.90625 13.91796875 C11.22884766 14.31781982 10.55144531 14.7176709 9.85351562 15.12963867 C8 16 8 16 5 16 C3.35 10.72 1.7 5.44 0 0 Z " fill="#040404" transform="translate(191,491)"/>
<path d="M0 0 C0 0.66 0 1.32 0 2 C0.66 2 1.32 2 2 2 C1.67 3.65 1.34 5.3 1 7 C-5.26911452 9.14067325 -11.43264252 11.03892329 -18 12 C-18 15.3 -18 18.6 -18 22 C-18.66 22 -19.32 22 -20 22 C-20 20.02 -20 18.04 -20 16 C-20.66 16 -21.32 16 -22 16 C-22 14.68 -22 13.36 -22 12 C-22.66 12 -23.32 12 -24 12 C-24 10.68 -24 9.36 -24 8 C-24.66 8 -25.32 8 -26 8 C-24.55370416 5.10740831 -23.06512057 5.02170686 -20 4 C-17.76600518 3.46451061 -15.52572045 2.97918598 -13.27734375 2.5078125 C-11.22607503 2.05041124 -9.20322046 1.46980276 -7.1875 0.875 C-4 0 -4 0 0 0 Z " fill="#F0EDEB" transform="translate(178,204)"/>
<path d="M0 0 C2.375 1.0625 2.375 1.0625 4 3 C4.42685201 6.41481611 4.66565297 8.82531829 2.9375 11.875 C-0.08052722 13.6274029 -2.53045455 13.93913078 -6 14 C-8.4375 12.4375 -8.4375 12.4375 -10 10 C-10.61195145 6.3282913 -10.48706506 4.71186432 -8.375 1.625 C-5.30522452 -0.4753727 -3.65443439 -0.53293835 0 0 Z " fill="#1D1D1D" transform="translate(375,105)"/>
<path d="M0 0 C0.33 0.66 0.66 1.32 1 2 C1.66 2 2.32 2 3 2 C3.33 1.34 3.66 0.68 4 0 C3.41347648 4.48993869 2.2356462 8.22543184 0.4375 12.375 C-0.01753906 13.43460937 -0.47257812 14.49421875 -0.94140625 15.5859375 C-1.29074219 16.38257813 -1.64007813 17.17921875 -2 18 C-2.66 17.67 -3.32 17.34 -4 17 C-4.66 19.31 -5.32 21.62 -6 24 C-6.33 24 -6.66 24 -7 24 C-6.99214478 23.14450562 -6.99214478 23.14450562 -6.98413086 22.27172852 C-6.96341779 19.70199677 -6.9503581 17.13228253 -6.9375 14.5625 C-6.92912109 13.66466797 -6.92074219 12.76683594 -6.91210938 11.84179688 C-6.90888672 10.98779297 -6.90566406 10.13378906 -6.90234375 9.25390625 C-6.89710693 8.46314697 -6.89187012 7.6723877 -6.88647461 6.85766602 C-6.79504091 4.98407311 -6.79504091 4.98407311 -8 4 C-8 10.27 -8 16.54 -8 23 C-8.33 23 -8.66 23 -9 23 C-9 16.4 -9 9.8 -9 3 C-5.535 2.505 -5.535 2.505 -2 2 C-1.34 1.34 -0.68 0.68 0 0 Z " fill="#522594" transform="translate(314,306)"/>
<path d="M0 0 C0 0.33 0 0.66 0 1 C-0.59167969 1.07476562 -1.18335938 1.14953125 -1.79296875 1.2265625 C-5.94394768 1.91726372 -9.09923593 2.48428652 -11.9375 5.75 C-16.23793948 12.52645009 -16.28248748 18.50852833 -16.1875 26.3125 C-16.18685547 27.30701172 -16.18621094 28.30152344 -16.18554688 29.32617188 C-16.15029474 35.29161631 -15.76630617 41.08411633 -15 47 C-16.81690718 43.57309323 -17.53933431 40.59866028 -18.125 36.75 C-18.29257813 35.67234375 -18.46015625 34.5946875 -18.6328125 33.484375 C-18.75398437 32.66453125 -18.87515625 31.8446875 -19 31 C-19.33 32.98 -19.66 34.96 -20 37 C-20.33 37 -20.66 37 -21 37 C-21.0292483 33.79168609 -21.04688189 30.58340693 -21.0625 27.375 C-21.07087891 26.47136719 -21.07925781 25.56773438 -21.08789062 24.63671875 C-21.10491895 19.97095711 -20.96829423 15.58986715 -20 11 C-19.34 11 -18.68 11 -18 11 C-17.79375 10.113125 -17.5875 9.22625 -17.375 8.3125 C-13.82574706 -0.237973 -8.40274589 -0.74727977 0 0 Z " fill="#603BA1" transform="translate(216,99)"/>
<path d="M0 0 C2.5 0.25 2.5 0.25 4.5 2.25 C4.80078125 4.96484375 4.80078125 4.96484375 4.8125 8.1875 C4.82925781 9.24839844 4.84601563 10.30929687 4.86328125 11.40234375 C4.5 14.25 4.5 14.25 3.14453125 16.140625 C1.5 17.25 1.5 17.25 -1.125 17.0625 C-3.5 16.25 -3.5 16.25 -4.5 14.25 C-4.62199138 12.2527458 -4.67547512 10.25094019 -4.6875 8.25 C-4.70167969 7.1775 -4.71585938 6.105 -4.73046875 5 C-4.42573721 1.36388124 -3.66967286 0.36696729 0 0 Z " fill="#4E248C" transform="translate(233.5,306.75)"/>
<path d="M0 0 C1.32 0 2.64 0 4 0 C4.07476562 0.72960937 4.14953125 1.45921875 4.2265625 2.2109375 C5.4183208 11.67490044 8.17858368 20.25554504 11.36743164 29.21337891 C12.72557093 33.04929683 12.96302016 35.04091714 12 39 C5.24997044 33.40432332 3.66156366 21.20540647 1.6875 12.9375 C1.51613525 12.22384277 1.34477051 11.51018555 1.16821289 10.77490234 C0.33687854 7.12326298 -0.19720454 3.74688622 0 0 Z " fill="#212121" transform="translate(120,385)"/>
<path d="M0 0 C2.9375 0.5 2.9375 0.5 4.8125 2.125 C6.26438252 5.19008532 6.43676965 7.14776095 5.9375 10.5 C3.85390793 12.8151023 2.49314772 13.40276165 -0.5625 13.9375 C-3.92900098 13.34836233 -5.06358769 12.23925021 -7.0625 9.5 C-7.5625 7 -7.5625 7 -7.0625 4.5 C-4.90152195 1.42476201 -3.73102371 0.60914673 0 0 Z " fill="#E2E2E2" transform="translate(74.0625,277.5)"/>
<path d="M0 0 C0.66 0 1.32 0 2 0 C1.75 3.375 1.75 3.375 1 7 C-0.875 8.25 -0.875 8.25 -3 9 C-5.86030884 10.93857248 -6.08849771 12.35362665 -6.94921875 15.79296875 C-7.20735458 17.25573846 -7.45307518 18.7207436 -7.6875 20.1875 C-7.81705078 20.93708984 -7.94660156 21.68667969 -8.08007812 22.45898438 C-8.39740538 24.30418359 -8.70013291 26.151883 -9 28 C-9.99 28 -10.98 28 -12 28 C-12 22.72 -12 17.44 -12 12 C-11.34 12 -10.68 12 -10 12 C-10 10.68 -10 9.36 -10 8 C-9.34 8 -8.68 8 -8 8 C-8 7.34 -8 6.68 -8 6 C-7.34 6 -6.68 6 -6 6 C-6 5.34 -6 4.68 -6 4 C-5.34 4 -4.68 4 -4 4 C-4 3.34 -4 2.68 -4 2 C-2.68 2 -1.36 2 0 2 C0 1.34 0 0.68 0 0 Z " fill="#EFE9E0" transform="translate(128,164)"/>
<path d="M0 0 C7.19150579 -0.44739783 13.60808721 0.5907132 20.60546875 2.24609375 C24.05862611 3.01302053 27.49385302 3.54112689 31 4 C31.33 5.32 31.66 6.64 32 8 C21.32728723 6.37130954 10.66330225 4.68901303 0 3 C0 2.01 0 1.02 0 0 Z " fill="#101010" transform="translate(423,129)"/>
<path d="M0 0 C2.5 0.25 2.5 0.25 4.5 2.25 C4.86796448 5.12012296 4.87509409 6.65774618 3.3125 9.125 C1.5 10.25 1.5 10.25 -1.0625 10.0625 C-3.5 9.25 -3.5 9.25 -5.5 7.25 C-5.08994391 3.14943907 -4.53376372 0.45337637 0 0 Z " fill="#EBEBEB" transform="translate(372.5,106.75)"/>
<path d="M0 0 C13.2 0 26.4 0 40 0 C40 0.33 40 0.66 40 1 C39.2575 1.144375 38.515 1.28875 37.75 1.4375 C35.14945704 1.91678004 35.14945704 1.91678004 33.27636719 2.55639648 C30.05909545 3.18335731 27.09500682 2.88776687 23.828125 2.66015625 C23.1457074 2.61434921 22.46328979 2.56854218 21.76019287 2.52134705 C19.5896766 2.37429533 17.41988805 2.21852231 15.25 2.0625 C13.77477915 1.9610118 12.29951894 1.86009389 10.82421875 1.75976562 C7.2156664 1.51311616 3.60771477 1.25864364 0 1 C0 0.67 0 0.34 0 0 Z " fill="#5928A9" transform="translate(334,538)"/>
<path d="M0 0 C0 0.66 0 1.32 0 2 C-7.36897561 5.06446761 -14.01790621 6.69121494 -22 7 C-22 6.01 -22 5.02 -22 4 C-20.86820312 3.72285156 -19.73640625 3.44570313 -18.5703125 3.16015625 C-17.08851098 2.79439512 -15.60674182 2.42850289 -14.125 2.0625 C-13.37863281 1.88009766 -12.63226563 1.69769531 -11.86328125 1.50976562 C-2.6094778 -0.78284334 -2.6094778 -0.78284334 0 0 Z " fill="#161616" transform="translate(430,556)"/>
<path d="M0 0 C3.29714793 0.32971479 4.6226839 0.6226839 7 3 C6.44444444 7.55555556 6.44444444 7.55555556 5 9 C2.5625 9.1875 2.5625 9.1875 0 9 C-2 7 -2 7 -2.25 4.5 C-2 2 -2 2 0 0 Z " fill="#181818" transform="translate(260,511)"/>
<path d="M0 0 C0.66 0 1.32 0 2 0 C2.33 0.99 2.66 1.98 3 3 C2.34 3.66 1.68 4.32 1 5 C0.87753906 5.66515625 0.75507813 6.3303125 0.62890625 7.015625 C0 9 0 9 -1.84765625 10.046875 C-2.94400391 10.39492187 -2.94400391 10.39492187 -4.0625 10.75 C-5.16271484 11.11351562 -5.16271484 11.11351562 -6.28515625 11.484375 C-7.13400391 11.73960937 -7.13400391 11.73960937 -8 12 C-8 9.36 -8 6.72 -8 4 C-6.68 4 -5.36 4 -4 4 C-4 3.34 -4 2.68 -4 2 C-2.68 2 -1.36 2 0 2 C0 1.34 0 0.68 0 0 Z " fill="#F0E7D4" transform="translate(144,156)"/>
<path d="M0 0 C2.5625 0.1875 2.5625 0.1875 4.5625 2.1875 C4.8125 4.6875 4.8125 4.6875 4.5625 7.1875 C3.9025 7.8475 3.2425 8.5075 2.5625 9.1875 C-0.73464793 8.85778521 -2.0601839 8.5648161 -4.4375 6.1875 C-3.71780303 0.28598485 -3.71780303 0.28598485 0 0 Z " fill="#202020" transform="translate(321.4375,55.8125)"/>
<path d="M0 0 C3.29714793 0.32971479 4.6226839 0.6226839 7 3 C6.44444444 7.55555556 6.44444444 7.55555556 5 9 C2.5625 9.1875 2.5625 9.1875 0 9 C-2 7 -2 7 -2.25 4.5 C-2 2 -2 2 0 0 Z " fill="#161616" transform="translate(568,425)"/>
<path d="M0 0 C2.375 0.6875 2.375 0.6875 3.375 1.6875 C3.625 4.125 3.625 4.125 3.375 6.6875 C0.375 8.6875 0.375 8.6875 -2.3125 8.3125 C-3.075625 8.10625 -3.83875 7.9 -4.625 7.6875 C-4.955 5.7075 -5.285 3.7275 -5.625 1.6875 C-2.625 -0.3125 -2.625 -0.3125 0 0 Z " fill="#141414" transform="translate(58.625,90.3125)"/>
<path d="M0 0 C0.66 0 1.32 0 2 0 C1.48317213 4.72129239 0.21935276 7.78731772 -2.375 11.75 C-2.98085938 12.69359375 -3.58671875 13.6371875 -4.2109375 14.609375 C-6 17 -6 17 -9 19 C-9.703125 17.30859375 -9.703125 17.30859375 -10 15 C-8.671875 12.59765625 -8.671875 12.59765625 -6.75 10.0625 C-4.81323682 7.47347979 -2.99627345 4.99347854 -1.390625 2.18359375 C-0.70226562 1.10271484 -0.70226562 1.10271484 0 0 Z " fill="#1B1B1B" transform="translate(507,491)"/>
<path d="M0 0 C2.9375 0.5 2.9375 0.5 4.8125 2.125 C6.26438252 5.19008532 6.43676965 7.14776095 5.9375 10.5 C3.85390793 12.8151023 2.49314772 13.40276165 -0.5625 13.9375 C-3.92900098 13.34836233 -5.06358769 12.23925021 -7.0625 9.5 C-7.5625 7 -7.5625 7 -7.0625 4.5 C-4.90152195 1.42476201 -3.73102371 0.60914673 0 0 Z M-5.0625 4.5 C-5.39583333 7 -5.39583333 7 -5.0625 9.5 C-3.23546773 11.7491908 -3.23546773 11.7491908 -0.5625 11.75 C2.11046773 11.7491908 2.11046773 11.7491908 3.9375 9.5 C4.27083333 7 4.27083333 7 3.9375 4.5 C2.11046773 2.2508092 2.11046773 2.2508092 -0.5625 2.25 C-3.23546773 2.2508092 -3.23546773 2.2508092 -5.0625 4.5 Z " fill="#222222" transform="translate(74.0625,277.5)"/>
<path d="M0 0 C0 1.32 0 2.64 0 4 C-0.66 4 -1.32 4 -2 4 C-2 5.32 -2 6.64 -2 8 C-2.66 8 -3.32 8 -4 8 C-4 8.66 -4 9.32 -4 10 C-4.66 10 -5.32 10 -6 10 C-6 9.34 -6 8.68 -6 8 C-6.66 8 -7.32 8 -8 8 C-8 7.01 -8 6.02 -8 5 C-8.66 4.67 -9.32 4.34 -10 4 C-8.68 4 -7.36 4 -6 4 C-6 3.34 -6 2.68 -6 2 C-7.32 2 -8.64 2 -10 2 C-10 1.34 -10 0.68 -10 0 C-6.7169902 -1.6415049 -3.57454967 -0.51888624 0 0 Z " fill="#F7D213" transform="translate(198,106)"/>
<path d="M0 0 C0.33 0.66 0.66 1.32 1 2 C1.66 2 2.32 2 3 2 C3.33 1.34 3.66 0.68 4 0 C3.5205537 4.21912747 2.83374881 6.79663178 0 10 C0 9.34 0 8.68 0 8 C-0.66 8 -1.32 8 -2 8 C-2.33 7.01 -2.66 6.02 -3 5 C-4.65 4.67 -6.3 4.34 -8 4 C-8 10.27 -8 16.54 -8 23 C-8.33 23 -8.66 23 -9 23 C-9 16.4 -9 9.8 -9 3 C-5.535 2.505 -5.535 2.505 -2 2 C-1.34 1.34 -0.68 0.68 0 0 Z " fill="#421C79" transform="translate(314,306)"/>
<path d="M0 0 C0.33 0 0.66 0 1 0 C1.12117187 1.21816406 1.24234375 2.43632813 1.3671875 3.69140625 C1.53613072 5.31513829 1.70541996 6.93883435 1.875 8.5625 C1.95363281 9.36236328 2.03226563 10.16222656 2.11328125 10.98632812 C2.7042483 16.55505613 3.46657303 21.93314605 6 27 C4.35 27.66 2.7 28.32 1 29 C-1.06170091 19.04931133 -0.95192877 10.0209799 0 0 Z " fill="#6F3CBE" transform="translate(196,120)"/>
<path d="M0 0 C0.66 0.33 1.32 0.66 2 1 C4.81479087 9.63550037 4.20230489 19.0423889 4 28 C3.67 28 3.34 28 3 28 C2.67 24.37 2.34 20.74 2 17 C-1.63 17 -5.26 17 -9 17 C-9 16.67 -9 16.34 -9 16 C-4.545 15.505 -4.545 15.505 0 15 C0 10.05 0 5.1 0 0 Z " fill="#ECE7EC" transform="translate(256,159)"/>
<path d="M0 0 C7.48291572 6.15034169 7.48291572 6.15034169 10 10 C6.41087588 10 5.89142971 9.33563446 3.3125 7 C2.37857422 6.1646875 2.37857422 6.1646875 1.42578125 5.3125 C0.95527344 4.879375 0.48476563 4.44625 0 4 C-0.55429687 4.78246094 -1.10859375 5.56492187 -1.6796875 6.37109375 C-2.76636719 7.88896484 -2.76636719 7.88896484 -3.875 9.4375 C-4.95394531 10.95150391 -4.95394531 10.95150391 -6.0546875 12.49609375 C-8 15 -8 15 -10 16 C-9.44151174 11.81641523 -6.95553698 8.97370431 -4.4375 5.75 C-4.01275391 5.19570312 -3.58800781 4.64140625 -3.15039062 4.0703125 C-2.10601659 2.70910589 -1.05377536 1.35394167 0 0 Z " fill="#2B2B2B" transform="translate(299,74)"/>
<path d="M0 0 C5.08829207 4.34001382 8.50025639 9.80647717 11 16 C11.16796875 19.34765625 11.16796875 19.34765625 11 22 C10.34 21.67 9.68 21.34 9 21 C9 19.68 9 18.36 9 17 C8.34 17 7.68 17 7 17 C5.82592979 14.73272667 4.66060261 12.46165376 3.5 10.1875 C3.16613281 9.54490234 2.83226562 8.90230469 2.48828125 8.24023438 C0.99760916 5.30452301 0 3.33873483 0 0 Z " fill="#F2EDF7" transform="translate(240,122)"/>
<path d="M0 0 C0.99 0.33 1.98 0.66 3 1 C0.7051836 6.53455721 -2.68496083 10.00415551 -7 14 C-7.66 12.68 -8.32 11.36 -9 10 C-6.03 6.7 -3.06 3.4 0 0 Z " fill="#212021" transform="translate(496,507)"/>
<path d="M0 0 C2 2 2 2 2.1953125 5.9140625 C2.18200376 7.48449351 2.15813602 9.05486221 2.125 10.625 C2.11597656 11.42679688 2.10695313 12.22859375 2.09765625 13.0546875 C2.07406223 15.03658523 2.03819065 17.01832981 2 19 C1.01 19 0.02 19 -1 19 C-1.02683987 16.02077407 -1.04676037 13.04178705 -1.0625 10.0625 C-1.07087891 9.21236328 -1.07925781 8.36222656 -1.08789062 7.48632812 C-1.09111328 6.67744141 -1.09433594 5.86855469 -1.09765625 5.03515625 C-1.10289307 4.2862915 -1.10812988 3.53742676 -1.11352539 2.76586914 C-1 1 -1 1 0 0 Z " fill="#110F10" transform="translate(542,235)"/>
<path d="M0 0 C0.33 0 0.66 0 1 0 C1.18175781 0.88300781 1.36351562 1.76601562 1.55078125 2.67578125 C3.12589018 10.19591668 4.8752198 17.61601205 7 25 C4 24 4 24 2.83203125 21.953125 C0.01365145 14.48063908 -0.45471932 7.94495702 0 0 Z " fill="#D2CBE1" transform="translate(195,138)"/>
<path d="M0 0 C0 5.94 0 11.88 0 18 C-0.99 17.67 -1.98 17.34 -3 17 C-2.67 12.38 -2.34 7.76 -2 3 C-3.6396875 3.309375 -3.6396875 3.309375 -5.3125 3.625 C-9 4 -9 4 -12 2 C-10.18769567 1.66560447 -8.3751509 1.33251176 -6.5625 1 C-5.04849609 0.7215625 -5.04849609 0.7215625 -3.50390625 0.4375 C-1 0 -1 0 0 0 Z " fill="#171717" transform="translate(298,115)"/>
<path d="M0 0 C0.91007813 0.00902344 1.82015625 0.01804687 2.7578125 0.02734375 C3.80582031 0.04474609 3.80582031 0.04474609 4.875 0.0625 C4.875 0.3925 4.875 0.7225 4.875 1.0625 C4.28332031 1.13726562 3.69164062 1.21203125 3.08203125 1.2890625 C-1.11027528 1.98664042 -4.22528853 2.55067692 -7.0625 5.875 C-8.82344125 8.59645466 -10.1310262 10.99021734 -11.125 14.0625 C-12.115 13.7325 -13.105 13.4025 -14.125 13.0625 C-12.76050416 7.85260681 -10.72650156 4.93411418 -7.125 1.0625 C-4.60024538 -0.19987731 -2.81299534 -0.03606404 0 0 Z " fill="#6237AD" transform="translate(211.125,98.9375)"/>
<path d="M0 0 C1.65 0 3.3 0 5 0 C4.67 1.98 4.34 3.96 4 6 C2.02 6 0.04 6 -2 6 C-2 10.95 -2 15.9 -2 21 C-2.33 21 -2.66 21 -3 21 C-3.02690104 18.20826945 -3.04679053 15.41679652 -3.0625 12.625 C-3.07087891 11.8309375 -3.07925781 11.036875 -3.08789062 10.21875 C-3.11328125 4.2265625 -3.11328125 4.2265625 -2 2 C-1.34 2 -0.68 2 0 2 C0 1.34 0 0.68 0 0 Z " fill="#C4C5EB" transform="translate(132,162)"/>
<path d="M0 0 C2.48046875 0.14453125 2.48046875 0.14453125 5.1875 0.8125 C6.53908203 1.13154297 6.53908203 1.13154297 7.91796875 1.45703125 C8.60503906 1.63621094 9.29210937 1.81539063 10 2 C10 2.66 10 3.32 10 4 C2.97195301 4.85373239 -3.92278069 5.12109311 -11 5 C-10.67 4.01 -10.34 3.02 -10 2 C-8.906875 2.226875 -7.81375 2.45375 -6.6875 2.6875 C-5.470625 2.790625 -4.25375 2.89375 -3 3 C-2.5359375 2.4946875 -2.071875 1.989375 -1.59375 1.46875 C-1.0678125 0.9840625 -0.541875 0.499375 0 0 Z " fill="#4D2383" transform="translate(372,307)"/>
<path d="M0 0 C-1.485 1.485 -1.485 1.485 -3 3 C0.465 4.98 0.465 4.98 4 7 C3.34 7.66 2.68 8.32 2 9 C-2.29 6.69 -6.58 4.38 -11 2 C-7.54930647 -0.30046235 -3.95022851 -1.97511426 0 0 Z " fill="#111111" transform="translate(284,119)"/>
<path d="M0 0 C3.39516992 5.09275488 3.4446425 10.01283709 3 16 C2 19.5625 2 19.5625 1 22 C0.67 22 0.34 22 0 22 C0 14.74 0 7.48 0 0 Z " fill="#DFD3EB" transform="translate(344,488)"/>
<path d="M0 0 C1.85446293 3.70892586 3.04953435 6.97879917 4 11 C3.67 11.99 3.34 12.98 3 14 C2.34 14 1.68 14 1 14 C1.66 15.98 2.32 17.96 3 20 C2.34 20 1.68 20 1 20 C1 20.66 1 21.32 1 22 C0.01 21.67 -0.98 21.34 -2 21 C-1.34 20.67 -0.68 20.34 0 20 C0 13.4 0 6.8 0 0 Z " fill="#6333A8" transform="translate(447,302)"/>
<path d="M0 0 C2.16926659 3.25389988 2.24080049 4.13395957 2.1953125 7.88671875 C2.18886719 8.82451172 2.18242187 9.76230469 2.17578125 10.72851562 C2.15902344 11.70498047 2.14226562 12.68144531 2.125 13.6875 C2.11597656 14.67556641 2.10695313 15.66363281 2.09765625 16.68164062 C2.0740843 19.12133765 2.04118022 21.56054697 2 24 C1.67 24 1.34 24 1 24 C0.67 22.02 0.34 20.04 0 18 C-0.66 18.33 -1.32 18.66 -2 19 C-1.34 12.73 -0.68 6.46 0 0 Z " fill="#7C4BD2" transform="translate(260,176)"/>
<path d="M0 0 C0.56332031 0.37511719 1.12664062 0.75023437 1.70703125 1.13671875 C0.13059807 2.1475614 -1.45442045 3.14502386 -3.04296875 4.13671875 C-3.9246875 4.69359375 -4.80640625 5.25046875 -5.71484375 5.82421875 C-8.29296875 7.13671875 -8.29296875 7.13671875 -12.29296875 7.13671875 C-11.09002375 3.52788376 -10.20329249 3.15452945 -6.98046875 1.32421875 C-5.81064453 0.63392578 -5.81064453 0.63392578 -4.6171875 -0.0703125 C-2.29296875 -0.86328125 -2.29296875 -0.86328125 0 0 Z " fill="#171617" transform="translate(455.29296875,542.86328125)"/>
<path d="M0 0 C0.99 0.33 1.98 0.66 3 1 C2.4225 1.55429687 1.845 2.10859375 1.25 2.6796875 C0.5075 3.40414062 -0.235 4.12859375 -1 4.875 C-1.7425 5.59429688 -2.485 6.31359375 -3.25 7.0546875 C-5.22293325 8.81170957 -5.22293325 8.81170957 -5 11 C-5.99 11.33 -6.98 11.66 -8 12 C-8.66 11.67 -9.32 11.34 -10 11 C-8.56285993 7.64170896 -6.79022601 5.60029302 -4.0625 3.1875 C-3.02802734 2.24970703 -3.02802734 2.24970703 -1.97265625 1.29296875 C-1.32167969 0.86628906 -0.67070312 0.43960938 0 0 Z " fill="#0C0C0C" transform="translate(215,523)"/>
<path d="M0 0 C2.29903669 4.10542266 4.35523153 8.69099505 3.625 13.4375 C3.41875 13.953125 3.2125 14.46875 3 15 C2.67 14.67 2.34 14.34 2 14 C1.34 14.99 0.68 15.98 0 17 C-0.19493195 14.72979256 -0.38070418 12.45879711 -0.5625 10.1875 C-0.66691406 8.92292969 -0.77132812 7.65835938 -0.87890625 6.35546875 C-1 3 -1 3 0 0 Z " fill="#0A0809" transform="translate(540,222)"/>
<path d="M0 0 C3.39271709 3.13923823 5.4450608 6.65631114 7 11 C6.75 14 6.75 14 6 16 C1.90759407 10.9332117 -0.47367627 6.6314678 0 0 Z " fill="#121111" transform="translate(525,185)"/>
<path d="M0 0 C0.33 0 0.66 0 1 0 C1 6.27 1 12.54 1 19 C3.31 19 5.62 19 8 19 C8.33 19.99 8.66 20.98 9 22 C6.36 22 3.72 22 1 22 C-0.20029908 19.59940183 -0.11459743 18.10639351 -0.09765625 15.4296875 C-0.09443359 14.53378906 -0.09121094 13.63789063 -0.08789062 12.71484375 C-0.07951172 11.77769531 -0.07113281 10.84054687 -0.0625 9.875 C-0.05798828 8.93011719 -0.05347656 7.98523438 -0.04882812 7.01171875 C-0.03702357 4.67441613 -0.02055759 2.33723939 0 0 Z " fill="#E8EDEC" transform="translate(382,309)"/>
<path d="M0 0 C0.5345256 1.24420647 1.05208611 2.49570936 1.5625 3.75 C1.85253906 4.44609375 2.14257812 5.1421875 2.44140625 5.859375 C3.07831803 8.30012784 2.80248831 9.6403655 2 12 C1.34 10.68 0.68 9.36 0 8 C-0.66 8.66 -1.32 9.32 -2 10 C-3.49821059 6.62902617 -4 4.79557881 -4 1 C-2 0 -2 0 0 0 Z " fill="#6434AF" transform="translate(202,147)"/>
<path d="M0 0 C5.44693314 -0.09688221 10.63904667 -0.12862175 16 1 C11.63960309 3.61623814 7.06801989 4.30800296 2.0625 3.5625 C1.381875 3.376875 0.70125 3.19125 0 3 C0 2.01 0 1.02 0 0 Z " fill="#2F2F2F" transform="translate(423,129)"/>
<path d="M0 0 C6.47058824 8.41176471 6.47058824 8.41176471 8 13 C10.64 13 13.28 13 16 13 C16 13.66 16 14.32 16 15 C12.875 15.9375 12.875 15.9375 9 16 C6.47265754 14.0375244 4.78012015 11.63781441 3 9 C2.38125 8.113125 1.7625 7.22625 1.125 6.3125 C0 4 0 4 0 0 Z " fill="#6742B4" transform="translate(223,150)"/>
<path d="M0 0 C0.33 0 0.66 0 1 0 C1.05386629 2.12472576 1.09273071 4.24983652 1.125 6.375 C1.14820313 7.55835937 1.17140625 8.74171875 1.1953125 9.9609375 C1 13 1 13 -1 15 C-1 12.69 -1 10.38 -1 8 C-1.66 8 -2.32 8 -3 8 C-3 7.34 -3 6.68 -3 6 C-3.66 6 -4.32 6 -5 6 C-5 5.34 -5 4.68 -5 4 C-4.34 4 -3.68 4 -3 4 C-3 3.34 -3 2.68 -3 2 C-2.34 2 -1.68 2 -1 2 C-0.67 1.34 -0.34 0.68 0 0 Z " fill="#EAF3F2" transform="translate(193,118)"/>
<path d="M0 0 C0.33 0 0.66 0 1 0 C1.40214229 6.16618181 -0.03181664 11.17745757 -2 17 C-3.96602468 14.05096298 -4.73897585 12.48032201 -5 9 C-3.6875 7.5625 -3.6875 7.5625 -2 6 C-0.79950593 2.89992799 -0.79950593 2.89992799 0 0 Z " fill="#101010" transform="translate(263,88)"/>
<path d="M0 0 C1.32 0 2.64 0 4 0 C4 2.31 4 4.62 4 7 C4.66 7.33 5.32 7.66 6 8 C6 9.65 6 11.3 6 13 C5.01 13.495 5.01 13.495 4 14 C4 12.68 4 11.36 4 10 C3.34 10 2.68 10 2 10 C2 8.02 2 6.04 2 4 C1.34 4 0.68 4 0 4 C0 2.68 0 1.36 0 0 Z " fill="#F3C719" transform="translate(76,208)"/>
<path d="M0 0 C0.66 0.33 1.32 0.66 2 1 C1.67 1.99 1.34 2.98 1 4 C0.34 4 -0.32 4 -1 4 C-1 4.66 -1 5.32 -1 6 C-2.96875 7.7265625 -2.96875 7.7265625 -5.5 9.625 C-6.75296875 10.57246094 -6.75296875 10.57246094 -8.03125 11.5390625 C-8.6809375 12.02117188 -9.330625 12.50328125 -10 13 C-10.66 12.34 -11.32 11.68 -12 11 C-8.04 7.37 -4.08 3.74 0 0 Z " fill="#191919" transform="translate(230,509)"/>
<path d="M0 0 C3.48670834 1.1094072 6.77484237 2.26337666 10 4 C10 4.99 10 5.98 10 7 C5.24518354 6.42365861 2.02951788 4.44931479 -2 2 C-1.34 1.34 -0.68 0.68 0 0 Z " fill="#0E0E0E" transform="translate(163,455)"/>
<path d="M0 0 C2.60018816 3.90028225 2.15085514 7.47434569 2 12 C2.66 12.33 3.32 12.66 4 13 C4.33 13.66 4.66 14.32 5 15 C0.125 14.125 0.125 14.125 -1 13 C-1.09873816 11.00200428 -1.12971799 9.00042842 -1.125 7 C-1.12757813 5.906875 -1.13015625 4.81375 -1.1328125 3.6875 C-1 1 -1 1 0 0 Z " fill="#452780" transform="translate(356,308)"/>
<path d="M0 0 C0.66 0 1.32 0 2 0 C2 0.66 2 1.32 2 2 C2.66 2 3.32 2 4 2 C4 2.66 4 3.32 4 4 C5.32 4 6.64 4 8 4 C8 4.66 8 5.32 8 6 C9.32 6 10.64 6 12 6 C12 6.66 12 7.32 12 8 C10.02 8 8.04 8 6 8 C6 7.34 6 6.68 6 6 C4.68 6 3.36 6 2 6 C2 5.34 2 4.68 2 4 C1.34 4 0.68 4 0 4 C0 2.68 0 1.36 0 0 Z " fill="#AA74DA" transform="translate(112,260)"/>
<path d="M0 0 C1.32 0 2.64 0 4 0 C4 1.32 4 2.64 4 4 C2.68 4 1.36 4 0 4 C0 5.98 0 7.96 0 10 C-0.66 10 -1.32 10 -2 10 C-2 8.02 -2 6.04 -2 4 C-2.66 4 -3.32 4 -4 4 C-4 3.34 -4 2.68 -4 2 C-2.68 2 -1.36 2 0 2 C0 1.34 0 0.68 0 0 Z " fill="#FADD2F" transform="translate(182,202)"/>
<path d="M0 0 C4.75 0.75 4.75 0.75 7 3 C10.08347826 3.16681109 10.08347826 3.16681109 13 3 C13 3.66 13 4.32 13 5 C7.87160006 6.81975482 3.82315618 4.8599099 -1 3 C-0.67 2.01 -0.34 1.02 0 0 Z " fill="#5C3490" transform="translate(461,307)"/>
<path d="M0 0 C0 0.66 0 1.32 0 2 C1.32 2.33 2.64 2.66 4 3 C2.68 3 1.36 3 0 3 C0 3.66 0 4.32 0 5 C-2.97 4.67 -5.94 4.34 -9 4 C-9 3.34 -9 2.68 -9 2 C-5.62902617 0.50178941 -3.79557881 0 0 0 Z " fill="#62339F" transform="translate(324,534)"/>
<path d="M0 0 C1.54571278 2.31856917 2.79618552 4.50638429 4 7 C3.34 7 2.68 7 2 7 C1.67 12.94 1.34 18.88 1 25 C0.67 25 0.34 25 0 25 C0 16.75 0 8.5 0 0 Z " fill="#5E28A2" transform="translate(282,303)"/>
<path d="M0 0 C1.32 0.33 2.64 0.66 4 1 C1.525 4.465 1.525 4.465 -1 8 C-1.99 7.67 -2.98 7.34 -4 7 C-2.92598892 4.08482708 -2.22189824 2.22189824 0 0 Z " fill="#F1EDF4" transform="translate(254,194)"/>
<path d="M0 0 C1.98 0.99 1.98 0.99 4 2 C4 2.66 4 3.32 4 4 C4.66 4 5.32 4 6 4 C7.625 6 7.625 6 9 8 C8.67 8.66 8.34 9.32 8 10 C4.20411134 9.45773019 2.52788007 7.79872437 0 5 C0.99 5 1.98 5 3 5 C2.01 3.35 1.02 1.7 0 0 Z " fill="#A397C3" transform="translate(231,109)"/>
<path d="M0 0 C3.63 0.33 7.26 0.66 11 1 C11 1.66 11 2.32 11 3 C12.98 3 14.96 3 17 3 C17 3.33 17 3.66 17 4 C11.72 4 6.44 4 1 4 C0.67 2.68 0.34 1.36 0 0 Z " fill="#0F0F0F" transform="translate(191,491)"/>
<path d="M0 0 C2.62451617 2.62451617 2.5832868 4.4877828 3.125 8.125 C3.29257812 9.22070312 3.46015625 10.31640625 3.6328125 11.4453125 C3.75398438 12.28835937 3.87515625 13.13140625 4 14 C3.01 14.33 2.02 14.66 1 15 C0.63807496 12.87630763 0.28568253 10.7509887 -0.0625 8.625 C-0.25972656 7.44164062 -0.45695312 6.25828125 -0.66015625 5.0390625 C-1 2 -1 2 0 0 Z " fill="#683EA8" transform="translate(258,156)"/>
<path d="M0 0 C3.8080413 0.30063484 6.2094208 1.40874788 9 4 C9.33 4.99 9.66 5.98 10 7 C5.76570244 5.68938409 1.92592596 4.05643741 -2 2 C-1.34 1.34 -0.68 0.68 0 0 Z " fill="#0F0E0E" transform="translate(479,143)"/>
<path d="M0 0 C3.10011632 2.53645881 4.0575938 5.15184135 5 9 C4.625 11.375 4.625 11.375 4 13 C1.04952165 8.38987758 -0.5497272 5.63470383 0 0 Z " fill="#171717" transform="translate(132,419)"/>
<path d="M0 0 C3 1.75 3 1.75 6 4 C6 5.32 6 6.64 6 8 C5.34 8 4.68 8 4 8 C4 7.34 4 6.68 4 6 C2.68 6 1.36 6 0 6 C0 5.34 0 4.68 0 4 C-0.66 4 -1.32 4 -2 4 C-2 3.34 -2 2.68 -2 2 C-1.34 2 -0.68 2 0 2 C0 1.34 0 0.68 0 0 Z " fill="#F8CF06" transform="translate(110,254)"/>
<path d="M0 0 C3.51653861 0.31968533 5.53431968 0.62242136 8.3125 2.875 C10 5 10 5 11 8 C6.40378078 6.5129879 3.53027653 4.20187872 0 1 C0 0.67 0 0.34 0 0 Z " fill="#181717" transform="translate(486,147)"/>
<path d="M0 0 C0.66 0 1.32 0 2 0 C5.42857143 8.42857143 5.42857143 8.42857143 5 13 C1.89531014 10.45979921 1.01514064 7.82629933 0 4 C0 2.68 0 1.36 0 0 Z " fill="#F3F0F6" transform="translate(251,145)"/>
<path d="M0 0 C1.32 0 2.64 0 4 0 C4.33 1.65 4.66 3.3 5 5 C3.35 5.33 1.7 5.66 0 6 C-0.38218767 4.34385343 -0.71395102 2.67542976 -1 1 C-0.67 0.67 -0.34 0.34 0 0 Z " fill="#282828" transform="translate(47,137)"/>
<path d="M0 0 C3.21666704 -0.21931821 5.43362303 -0.26828383 8.375 1.125 C10 3 10 3 10.25 6.1875 C10.1675 7.115625 10.085 8.04375 10 9 C9.34 9 8.68 9 8 9 C7.34 7.02 6.68 5.04 6 3 C3.03 2.505 3.03 2.505 0 2 C0 1.34 0 0.68 0 0 Z " fill="#111111" transform="translate(369,105)"/>
<path d="M0 0 C1.32 0 2.64 0 4 0 C4.33 1.65 4.66 3.3 5 5 C3.35 5.33 1.7 5.66 0 6 C-1.125 2.25 -1.125 2.25 0 0 Z " fill="#232323" transform="translate(101,71)"/>
<path d="M0 0 C0.33 0 0.66 0 1 0 C1.16820551 1.93736701 1.33451095 3.87489906 1.5 5.8125 C1.5928125 6.89144531 1.685625 7.97039062 1.78125 9.08203125 C2 12 2 12 2 15 C1.34 15 0.68 15 0 15 C-0.99 12.03 -1.98 9.06 -3 6 C-2.01 6 -1.02 6 0 6 C0 4.02 0 2.04 0 0 Z " fill="#5A309F" transform="translate(342,308)"/>
<path d="M0 0 C0.33 0.66 0.66 1.32 1 2 C-1.64 2 -4.28 2 -7 2 C-7.33 1.34 -7.66 0.68 -8 0 C-10.32156597 -0.40729228 -12.6568787 -0.74438677 -15 -1 C-15 -1.33 -15 -1.66 -15 -2 C-8.96498194 -3.38302497 -5.62718496 -2.61955162 0 0 Z " fill="#B9AACF" transform="translate(224,102)"/>
<path d="M0 0 C0.66 0 1.32 0 2 0 C0.59023295 3.03852705 -1.08870228 5.5939595 -3.125 8.25 C-3.66382813 8.95640625 -4.20265625 9.6628125 -4.7578125 10.390625 C-5.16773438 10.92171875 -5.57765625 11.4528125 -6 12 C-6.33 11.01 -6.66 10.02 -7 9 C-5.63671875 6.73828125 -5.63671875 6.73828125 -3.6875 4.3125 C-3.05199219 3.50425781 -2.41648437 2.69601563 -1.76171875 1.86328125 C-1.18035156 1.24839844 -0.59898437 0.63351563 0 0 Z " fill="#1A1A1A" transform="translate(296,78)"/>
<path d="M0 0 C1.125 1.5625 1.125 1.5625 2 4 C1.125 7.75 1.125 7.75 0 11 C-2.475 10.01 -2.475 10.01 -5 9 C-5 8.34 -5 7.68 -5 7 C-4.01 6.67 -3.02 6.34 -2 6 C-0.77479736 2.99152582 -0.77479736 2.99152582 0 0 Z " fill="#1F1F1F" transform="translate(222,531)"/>
<path d="M0 0 C0.94875 0.350625 1.8975 0.70125 2.875 1.0625 C2.545 1.7225 2.215 2.3825 1.875 3.0625 C0.555 3.0625 -0.765 3.0625 -2.125 3.0625 C-2.125 3.7225 -2.125 4.3825 -2.125 5.0625 C-3.115 4.7325 -4.105 4.4025 -5.125 4.0625 C-5.125 2.7425 -5.125 1.4225 -5.125 0.0625 C-3.125 -0.9375 -3.125 -0.9375 0 0 Z " fill="#582694" transform="translate(453.125,315.9375)"/>
<path d="M0 0 C1.65 0 3.3 0 5 0 C5 0.66 5 1.32 5 2 C5.66 2.33 6.32 2.66 7 3 C4.36 3.99 1.72 4.98 -1 6 C-0.67 4.02 -0.34 2.04 0 0 Z " fill="#ECEDF1" transform="translate(137,162)"/>
<path d="M0 0 C0.66 0.66 1.32 1.32 2 2 C2.66 1.34 3.32 0.68 4 0 C4.33 1.98 4.66 3.96 5 6 C4.01 6 3.02 6 2 6 C1.67 6.99 1.34 7.98 1 9 C0.63877119 7.68942607 0.28619689 6.37646376 -0.0625 5.0625 C-0.35833984 3.96615234 -0.35833984 3.96615234 -0.66015625 2.84765625 C-0.77230469 2.23792969 -0.88445312 1.62820312 -1 1 C-0.67 0.67 -0.34 0.34 0 0 Z " fill="#E4E2EC" transform="translate(203,146)"/>
<path d="M0 0 C0.98484375 0.11085937 1.9696875 0.22171875 2.984375 0.3359375 C3.73203125 0.43132812 4.4796875 0.52671875 5.25 0.625 C0.96465609 3.48189594 -2.71398073 2.97155647 -7.6875 2.125 C-8.368125 1.96 -9.04875 1.795 -9.75 1.625 C-6.30824478 -0.52199969 -3.9779708 -0.47356795 0 0 Z " fill="#090909" transform="translate(440.75,131.375)"/>
<path d="M0 0 C0 0.66 0 1.32 0 2 C1.32 2 2.64 2 4 2 C4 2.66 4 3.32 4 4 C2.37536158 4.05395478 0.75021459 4.09277195 -0.875 4.125 C-1.77992188 4.14820312 -2.68484375 4.17140625 -3.6171875 4.1953125 C-6 4 -6 4 -8 2 C-2.25 0 -2.25 0 0 0 Z " fill="#F8CA1D" transform="translate(140,102)"/>
<path d="M0 0 C0.53625 0.2475 1.0725 0.495 1.625 0.75 C-1.02238916 2.2106285 -2.26948334 2.75 -5.375 2.75 C-5.045 3.74 -4.715 4.73 -4.375 5.75 C-6.355 6.74 -8.335 7.73 -10.375 8.75 C-9.37684314 5.15663529 -8.42674542 3.79274621 -5.5 1.375 C-2.375 -0.25 -2.375 -0.25 0 0 Z " fill="#E5DBF2" transform="translate(355.375,299.25)"/>
<path d="M0 0 C1.65 0.33 3.3 0.66 5 1 C4.67 2.32 4.34 3.64 4 5 C2.35 4.67 0.7 4.34 -1 4 C-0.67 2.68 -0.34 1.36 0 0 Z " fill="#0F0F0F" transform="translate(563,380)"/>
<path d="M0 0 C4.455 1.98 4.455 1.98 9 4 C9 4.66 9 5.32 9 6 C6.69 5.67 4.38 5.34 2 5 C1.34 3.35 0.68 1.7 0 0 Z " fill="#6538C2" transform="translate(230,198)"/>
<path d="M0 0 C1.65 0.33 3.3 0.66 5 1 C4.67 2.32 4.34 3.64 4 5 C2.35 4.67 0.7 4.34 -1 4 C-0.67 2.68 -0.34 1.36 0 0 Z " fill="#151515" transform="translate(350,97)"/>
<path d="M0 0 C1.98 0.495 1.98 0.495 4 1 C3.67 2.65 3.34 4.3 3 6 C1.68 5.67 0.36 5.34 -1 5 C-0.67 3.35 -0.34 1.7 0 0 Z " fill="#131313" transform="translate(274,59)"/>
<path d="M0 0 C0.66 0 1.32 0 2 0 C1.38461538 5.53846154 1.38461538 5.53846154 -0.5625 7.875 C-1.036875 8.24625 -1.51125 8.6175 -2 9 C-2.6875 7.3125 -2.6875 7.3125 -3 5 C-1.6875 2.25 -1.6875 2.25 0 0 Z " fill="#0C0C0C" transform="translate(507,491)"/>
<path d="M0 0 C0.99 0 1.98 0 3 0 C5.42857143 7.42857143 5.42857143 7.42857143 4 11 C4 10.34 4 9.68 4 9 C3.34 9 2.68 9 2 9 C2 7.02 2 5.04 2 3 C1.34 3 0.68 3 0 3 C0 2.01 0 1.02 0 0 Z " fill="#491C8F" transform="translate(512,233)"/>
<path d="M0 0 C3.81538462 2.46153846 3.81538462 2.46153846 4.75 5.1875 C4.8325 5.785625 4.915 6.38375 5 7 C3.68 7.33 2.36 7.66 1 8 C0.87625 7.360625 0.7525 6.72125 0.625 6.0625 C0.315625 5.0415625 0.315625 5.0415625 0 4 C-0.66 3.67 -1.32 3.34 -2 3 C-1.34 2.01 -0.68 1.02 0 0 Z " fill="#723FC4" transform="translate(202,154)"/>
<path d="M0 0 C3.63 0 7.26 0 11 0 C9.02 0.99 9.02 0.99 7 2 C7 2.66 7 3.32 7 4 C6.34 4 5.68 4 5 4 C5 3.34 5 2.68 5 2 C3.02 2 1.04 2 -1 2 C-0.67 1.34 -0.34 0.68 0 0 Z " fill="#EBC023" transform="translate(169,100)"/>
<path d="M0 0 C2.475 0.495 2.475 0.495 5 1 C5 2.32 5 3.64 5 5 C3.35 5 1.7 5 0 5 C0 3.35 0 1.7 0 0 Z " fill="#141414" transform="translate(161,532)"/>
<path d="M0 0 C1.65 0 3.3 0 5 0 C5 1.65 5 3.3 5 5 C3.35 4.67 1.7 4.34 0 4 C0 2.68 0 1.36 0 0 Z " fill="#181717" transform="translate(537,447)"/>
<path d="M0 0 C3.3 0.33 6.6 0.66 10 1 C5.89441282 3.05279359 4.19793315 3.2216942 -0.25 3.125 C-1.32765625 3.10695312 -2.4053125 3.08890625 -3.515625 3.0703125 C-4.33546875 3.04710937 -5.1553125 3.02390625 -6 3 C-6 2.67 -6 2.34 -6 2 C-4.02 1.67 -2.04 1.34 0 1 C0 0.67 0 0.34 0 0 Z " fill="#5F2C9D" transform="translate(266,149)"/>
<path d="M0 0 C3 1 3 1 4 3 C3.34 3 2.68 3 2 3 C2 3.66 2 4.32 2 5 C0.02 5.66 -1.96 6.32 -4 7 C-2.68 4.69 -1.36 2.38 0 0 Z " fill="#171717" transform="translate(283,95)"/>
<path d="M0 0 C2 2 2 2 3 5 C3.66 5.33 4.32 5.66 5 6 C4.67 6.99 4.34 7.98 4 9 C3.01 9 2.02 9 1 9 C0.67 6.03 0.34 3.06 0 0 Z " fill="#101010" transform="translate(195,498)"/>
<path d="M0 0 C1.32 0 2.64 0 4 0 C4 1.32 4 2.64 4 4 C3.34 4 2.68 4 2 4 C2 5.65 2 7.3 2 9 C0.14223235 5.86501708 -0.20140476 3.62528568 0 0 Z " fill="#303030" transform="translate(120,385)"/>
<path d="M0 0 C1.32 0 2.64 0 4 0 C4 0.66 4 1.32 4 2 C5.98 2 7.96 2 10 2 C8 4 8 4 4.875 4.125 C3.92625 4.08375 2.9775 4.0425 2 4 C2 3.34 2 2.68 2 2 C1.34 2 0.68 2 0 2 C0 1.34 0 0.68 0 0 Z " fill="#9E63FA" transform="translate(128,270)"/>
<path d="M0 0 C0 0.33 0 0.66 0 1 C-3.63 1 -7.26 1 -11 1 C-11 0.34 -11 -0.32 -11 -1 C-6.58937864 -2.0257259 -4.07369424 -2.03684712 0 0 Z " fill="#D4CEF5" transform="translate(231,201)"/>
<path d="M0 0 C1.32 0.33 2.64 0.66 4 1 C3.01 3.97 2.02 6.94 1 10 C0.67 10 0.34 10 0 10 C0 6.7 0 3.4 0 0 Z " fill="#F4EDF5" transform="translate(66,148)"/>
<path d="M0 0 C0.66 0 1.32 0 2 0 C2 1.98 2 3.96 2 6 C0.35 6 -1.3 6 -3 6 C-3.33 4.68 -3.66 3.36 -4 2 C-3.34 2 -2.68 2 -2 2 C-2 2.66 -2 3.32 -2 4 C-1.34 4 -0.68 4 0 4 C0 2.68 0 1.36 0 0 Z " fill="#F7C919" transform="translate(86,146)"/>
<path d="M0 0 C0.99 0 1.98 0 3 0 C2.67 1.98 2.34 3.96 2 6 C1.34 6 0.68 6 0 6 C0 6.66 0 7.32 0 8 C-0.66 8 -1.32 8 -2 8 C-2 6.68 -2 5.36 -2 4 C-1.34 4 -0.68 4 0 4 C0 2.68 0 1.36 0 0 Z " fill="#9961F7" transform="translate(82,142)"/>
<path d="M0 0 C0.66 0 1.32 0 2 0 C2 0.66 2 1.32 2 2 C3.32 2 4.64 2 6 2 C6 2.66 6 3.32 6 4 C5.34 4 4.68 4 4 4 C3.67 4.66 3.34 5.32 3 6 C3 5.34 3 4.68 3 4 C1.35 4 -0.3 4 -2 4 C-2 3.34 -2 2.68 -2 2 C-1.34 2 -0.68 2 0 2 C0 1.34 0 0.68 0 0 Z " fill="#A06DDF" transform="translate(82,138)"/>
<path d="M0 0 C2.35448165 2.55068845 2.98327924 3.71017358 3.1875 7.25 C3.125625 8.1575 3.06375 9.065 3 10 C2.34 9.67 1.68 9.34 1 9 C1 7.68 1 6.36 1 5 C0.34 5 -0.32 5 -1 5 C-1.33 3.68 -1.66 2.36 -2 1 C-1.34 0.67 -0.68 0.34 0 0 Z " fill="#E7E1F5" transform="translate(248,134)"/>
<path d="M0 0 C-0.33 1.32 -0.66 2.64 -1 4 C-2.65 4 -4.3 4 -6 4 C-6 2.68 -6 1.36 -6 0 C-2.25 -1.125 -2.25 -1.125 0 0 Z " fill="#020202" transform="translate(326,58)"/>
<path d="M0 0 C0.99 0.33 1.98 0.66 3 1 C-0.96 4.465 -0.96 4.465 -5 8 C-5.66 7.34 -6.32 6.68 -7 6 C-5.90716423 4.96704564 -4.80029421 3.94892165 -3.6875 2.9375 C-3.07261719 2.36902344 -2.45773438 1.80054688 -1.82421875 1.21484375 C-0.92123047 0.61349609 -0.92123047 0.61349609 0 0 Z " fill="#1D1D1D" transform="translate(215,523)"/>
<path d="M0 0 C0.99 0.33 1.98 0.66 3 1 C2.01 2.98 1.02 4.96 0 7 C-0.66 6.67 -1.32 6.34 -2 6 C-1.125 1.125 -1.125 1.125 0 0 Z " fill="#2D2D2E" transform="translate(496,507)"/>
<path d="M0 0 C0.99 0.495 0.99 0.495 2 1 C1.01 1.495 1.01 1.495 0 2 C0 1.34 0 0.68 0 0 Z M-2 2 C-1.34 2.33 -0.68 2.66 0 3 C-1.375 5 -1.375 5 -3 7 C-3.66 7 -4.32 7 -5 7 C-5 7.66 -5 8.32 -5 9 C-5.99 8.67 -6.98 8.34 -8 8 C-6 6 -4 4 -2 2 Z " fill="#EBE5EF" transform="translate(463,503)"/>
<path d="M0 0 C0.78375 0.04125 1.5675 0.0825 2.375 0.125 C1.055 0.455 -0.265 0.785 -1.625 1.125 C-1.625 2.115 -1.625 3.105 -1.625 4.125 C-2.285 4.125 -2.945 4.125 -3.625 4.125 C-3.625 6.765 -3.625 9.405 -3.625 12.125 C-3.955 12.125 -4.285 12.125 -4.625 12.125 C-4.67895478 10.50036158 -4.71777195 8.87521459 -4.75 7.25 C-4.77320313 6.34507812 -4.79640625 5.44015625 -4.8203125 4.5078125 C-4.53030547 0.96972669 -3.50613188 0.16695866 0 0 Z " fill="#431B6E" transform="translate(203.625,307.875)"/>
<path d="M0 0 C0.66 1.32 1.32 2.64 2 4 C1.34 4.66 0.68 5.32 0 6 C-2.625 5.625 -2.625 5.625 -5 5 C-4.67 4.01 -4.34 3.02 -4 2 C-2.02 2.495 -2.02 2.495 0 3 C0 2.01 0 1.02 0 0 Z " fill="#2D2D2D" transform="translate(324,59)"/>
<path d="M0 0 C2.6875 0.3125 2.6875 0.3125 5 1 C3.8125 2.5625 3.8125 2.5625 2 4 C-0.6875 3.6875 -0.6875 3.6875 -3 3 C-1.8125 1.4375 -1.8125 1.4375 0 0 Z " fill="#232224" transform="translate(468,532)"/>
<path d="M0 0 C-5.75 4 -5.75 4 -8 4 C-8.33 2.68 -8.66 1.36 -9 0 C-3.375 -1.125 -3.375 -1.125 0 0 Z " fill="#1E1E1E" transform="translate(219,495)"/>
<path d="M0 0 C2.64 0 5.28 0 8 0 C8 0.99 8 1.98 8 3 C5.03 2.67 2.06 2.34 -1 2 C-0.67 1.34 -0.34 0.68 0 0 Z " fill="#4F2887" transform="translate(296,463)"/>
<path d="M0 0 C0.33 0 0.66 0 1 0 C1.02694851 1.95825873 1.04637218 3.91662226 1.0625 5.875 C1.07410156 6.96554687 1.08570313 8.05609375 1.09765625 9.1796875 C1 12 1 12 0 14 C-0.66 14 -1.32 14 -2 14 C-2 12.68 -2 11.36 -2 10 C-1.34 10 -0.68 10 0 10 C0 6.7 0 3.4 0 0 Z " fill="#715693" transform="translate(522,280)"/>
<path d="M0 0 C0.66 1.32 1.32 2.64 2 4 C2.66 4 3.32 4 4 4 C4 4.66 4 5.32 4 6 C4.66 6 5.32 6 6 6 C6 6.66 6 7.32 6 8 C4.1875 7.875 4.1875 7.875 2 7 C0.25 3.9375 0.25 3.9375 -1 1 C-0.67 0.67 -0.34 0.34 0 0 Z " fill="#EFEAF2" transform="translate(226,152)"/>
<path d="M0 0 C0.66 0 1.32 0 2 0 C2.33 0.99 2.66 1.98 3 3 C2.01 3.99 1.02 4.98 0 6 C-1.32 5.34 -2.64 4.68 -4 4 C-3.34 4 -2.68 4 -2 4 C-2 3.34 -2 2.68 -2 2 C-1.34 2 -0.68 2 0 2 C0 1.34 0 0.68 0 0 Z " fill="#F3C41B" transform="translate(106,118)"/>
<path d="M0 0 C2.97 0.33 5.94 0.66 9 1 C9 1.33 9 1.66 9 2 C4.545 2.495 4.545 2.495 0 3 C0 2.01 0 1.02 0 0 Z " fill="#080808" transform="translate(408,560)"/>
<path d="M0 0 C0 0.66 0 1.32 0 2 C-2.97 1.67 -5.94 1.34 -9 1 C-4.82091936 -1.08954032 -4.19589427 -1.16552619 0 0 Z " fill="#E7DFE9" transform="translate(396,538)"/>
<path d="M0 0 C3.96 0.33 7.92 0.66 12 1 C12 1.33 12 1.66 12 2 C10.56589632 2.24954005 9.12739928 2.47392642 7.6875 2.6875 C6.88699219 2.81511719 6.08648437 2.94273437 5.26171875 3.07421875 C3 3 3 3 0 0 Z " fill="#DBDAE0" transform="translate(253,461)"/>
<path d="M0 0 C2.08954032 4.17908064 2.16552619 4.80410573 1 9 C0.34 9 -0.32 9 -1 9 C-0.67 6.03 -0.34 3.06 0 0 Z " fill="#E2DCE7" transform="translate(133,353)"/>
<path d="M0 0 C3.73639216 1.24546405 4.18756513 2.63404953 6 6 C4.68 6 3.36 6 2 6 C2 5.34 2 4.68 2 4 C1.34 4 0.68 4 0 4 C0 2.68 0 1.36 0 0 Z " fill="#5C2E97" transform="translate(264,320)"/>
<path d="M0 0 C0.33 0 0.66 0 1 0 C1.33 2.97 1.66 5.94 2 9 C1.34 8.67 0.68 8.34 0 8 C-0.66 8.99 -1.32 9.98 -2 11 C-1 3.57142857 -1 3.57142857 0 0 Z " fill="#504E4F" transform="translate(542,228)"/>
<path d="M0 0 C0.66 0 1.32 0 2 0 C2 1.98 2 3.96 2 6 C1.01 6 0.02 6 -1 6 C-1.33 6.99 -1.66 7.98 -2 9 C-2 7.35 -2 5.7 -2 4 C-1.34 4 -0.68 4 0 4 C0 2.68 0 1.36 0 0 Z " fill="#AB73DD" transform="translate(240,226)"/>
<path d="M0 0 C1.32 1.32 2.64 2.64 4 4 C2.68 4.99 1.36 5.98 0 7 C-0.66 5.68 -1.32 4.36 -2 3 C-1.34 3 -0.68 3 0 3 C0 2.01 0 1.02 0 0 Z " fill="#7048B6" transform="translate(221,187)"/>
<path d="M0 0 C1.32 1.32 2.64 2.64 4 4 C3.67 4.66 3.34 5.32 3 6 C1.35 5.67 -0.3 5.34 -2 5 C-1.34 3.35 -0.68 1.7 0 0 Z " fill="#5F36A7" transform="translate(215,179)"/>
<path d="M0 0 C2.4375 0.625 2.4375 0.625 5 2 C5.8125 5.125 5.8125 5.125 6 8 C1.125 3.375 1.125 3.375 0 0 Z " fill="#151414" transform="translate(511,168)"/>
<path d="M0 0 C0.99 0.33 1.98 0.66 3 1 C1.68 3.64 0.36 6.28 -1 9 C-1.33 9 -1.66 9 -2 9 C-2.25 3.375 -2.25 3.375 0 0 Z " fill="#353535" transform="translate(367,106)"/>
<path d="M0 0 C0.66 0.33 1.32 0.66 2 1 C1.34 3.31 0.68 5.62 0 8 C-0.99 8 -1.98 8 -3 8 C-2.25 2.25 -2.25 2.25 0 0 Z " fill="#CBC5D9" transform="translate(374,300)"/>
<path d="M0 0 C-0.5625 1.9375 -0.5625 1.9375 -2 4 C-5.625 4.75 -5.625 4.75 -9 5 C-6.47717345 2.47717345 -3.69610207 0 0 0 Z " fill="#2A2A2A" transform="translate(80,286)"/>
<path d="M0 0 C3.0916909 2.52956528 3.90931332 5.22454612 5 9 C4.01 9.495 4.01 9.495 3 10 C0 3.375 0 3.375 0 0 Z " fill="#242223" transform="translate(516,171)"/>
<path d="M0 0 C2.64 0 5.28 0 8 0 C7.67 0.99 7.34 1.98 7 3 C4.69 2.67 2.38 2.34 0 2 C0 1.34 0 0.68 0 0 Z " fill="#5C378D" transform="translate(288,147)"/>
<path d="M0 0 C1.32 0 2.64 0 4 0 C4 1.32 4 2.64 4 4 C3.34 4 2.68 4 2 4 C1.67 4.66 1.34 5.32 1 6 C0.67 4.02 0.34 2.04 0 0 Z " fill="#A66BE8" transform="translate(88,132)"/>
<path d="M0 0 C2.12508244 3.18762365 2.5020163 5.26512223 3 9 C2.01 9.495 2.01 9.495 1 10 C0.63720544 8.71073008 0.28503302 7.41846728 -0.0625 6.125 C-0.35833984 5.04605469 -0.35833984 5.04605469 -0.66015625 3.9453125 C-1 2 -1 2 0 0 Z " fill="#111111" transform="translate(256,85)"/>
<path d="M0 0 C2.64 0 5.28 0 8 0 C8 0.66 8 1.32 8 2 C5.39417629 2.93065133 4.35801776 3.14917407 1.75 2.0625 C1.1725 1.711875 0.595 1.36125 0 1 C0 0.67 0 0.34 0 0 Z " fill="#202020" transform="translate(413,559)"/>
<path d="M0 0 C0.99 0.33 1.98 0.66 3 1 C3 2.32 3 3.64 3 5 C1.68 4.67 0.36 4.34 -1 4 C-0.67 2.68 -0.34 1.36 0 0 Z " fill="#141213" transform="translate(514,477)"/>
<path d="M0 0 C0.33 0 0.66 0 1 0 C1 1.65 1 3.3 1 5 C-0.98 5.33 -2.96 5.66 -5 6 C-4.34 4.35 -3.68 2.7 -3 1 C-2.01 1.33 -1.02 1.66 0 2 C0 1.34 0 0.68 0 0 Z " fill="#4A257B" transform="translate(448,322)"/>
<path d="M0 0 C2.0625 0.4375 2.0625 0.4375 4 1 C3.01 1.495 3.01 1.495 2 2 C1.53248212 4.35599235 1.53248212 4.35599235 1.375 7.0625 C1.30023438 7.98160156 1.22546875 8.90070313 1.1484375 9.84765625 C1.09945312 10.55792969 1.05046875 11.26820313 1 12 C0.67 12 0.34 12 0 12 C-0.19401633 10.18818595 -0.38004375 8.37551468 -0.5625 6.5625 C-0.66691406 5.55316406 -0.77132812 4.54382813 -0.87890625 3.50390625 C-0.91886719 2.67761719 -0.95882812 1.85132813 -1 1 C-0.67 0.67 -0.34 0.34 0 0 Z " fill="#5A2E95" transform="translate(230,308)"/>
<path d="M0 0 C0.99 0.33 1.98 0.66 3 1 C3 1.99 3 2.98 3 4 C2.34 4 1.68 4 1 4 C0.34 5.32 -0.32 6.64 -1 8 C-0.67 5.36 -0.34 2.72 0 0 Z " fill="#9B74EA" transform="translate(65,160)"/>
<path d="M0 0 C0 0.99 0 1.98 0 3 C-2.4375 2.625 -2.4375 2.625 -5 2 C-5.33 1.34 -5.66 0.68 -6 0 C-3.50907189 -1.24546405 -2.58919267 -0.7767578 0 0 Z " fill="#222222" transform="translate(455,134)"/>
<path d="M0 0 C1.98 0.66 3.96 1.32 6 2 C6 2.99 6 3.98 6 5 C3.69 4.01 1.38 3.02 -1 2 C-0.67 1.34 -0.34 0.68 0 0 Z " fill="#282828" transform="translate(281,123)"/>
</svg>
